<svg xmlns="http://www.w3.org/2000/svg" width="640" height="180" viewBox="0 0 640 180" role="img" aria-label="Alert 8 waveform">
  <rect width="640" height="180" rx="18" fill="#10171d"/>
  <rect x="1" y="1" width="638" height="178" rx="17" fill="none" stroke="#2d3943" stroke-width="2"/>
  <text x="28" y="38" fill="#f6fbff" font-family="Inter, Arial, sans-serif" font-weight="850" font-size="24">Alert 8</text>
  <text x="612" y="38" fill="#ff8a64" text-anchor="end" font-family="Inter, Arial, sans-serif" font-weight="800" font-size="16">388 ms</text>
  <g opacity="0.96"><rect x="28.00" y="74.74" width="2.3" height="30.53" rx="1.1" fill="#ff8a64"/><rect x="31.65" y="78.64" width="2.3" height="22.72" rx="1.1" fill="#ff8a64"/><rect x="35.30" y="81.55" width="2.3" height="16.91" rx="1.1" fill="#ff8a64"/><rect x="38.95" y="82.72" width="2.3" height="14.57" rx="1.1" fill="#ff8a64"/><rect x="42.60" y="83.05" width="2.3" height="13.89" rx="1.1" fill="#ff8a64"/><rect x="46.25" y="82.22" width="2.3" height="15.57" rx="1.1" fill="#ff8a64"/><rect x="49.90" y="80.86" width="2.3" height="18.29" rx="1.1" fill="#ff8a64"/><rect x="53.55" y="77.50" width="2.3" height="24.99" rx="1.1" fill="#ff8a64"/><rect x="57.20" y="74.57" width="2.3" height="30.86" rx="1.1" fill="#ff8a64"/><rect x="60.85" y="71.11" width="2.3" height="37.77" rx="1.1" fill="#ff8a64"/><rect x="64.50" y="68.92" width="2.3" height="42.16" rx="1.1" fill="#ff8a64"/><rect x="68.15" y="65.88" width="2.3" height="48.23" rx="1.1" fill="#ff8a64"/><rect x="71.80" y="62.15" width="2.3" height="55.70" rx="1.1" fill="#ff8a64"/><rect x="75.45" y="59.06" width="2.3" height="61.88" rx="1.1" fill="#ff8a64"/><rect x="79.10" y="57.48" width="2.3" height="65.04" rx="1.1" fill="#ff8a64"/><rect x="82.75" y="54.90" width="2.3" height="70.20" rx="1.1" fill="#ff8a64"/><rect x="86.40" y="52.08" width="2.3" height="75.84" rx="1.1" fill="#ff8a64"/><rect x="90.05" y="51.03" width="2.3" height="77.94" rx="1.1" fill="#ff8a64"/><rect x="93.70" y="49.10" width="2.3" height="81.79" rx="1.1" fill="#ff8a64"/><rect x="97.35" y="46.82" width="2.3" height="86.36" rx="1.1" fill="#ff8a64"/><rect x="101.00" y="45.40" width="2.3" height="89.21" rx="1.1" fill="#ff8a64"/><rect x="104.65" y="45.77" width="2.3" height="88.46" rx="1.1" fill="#ff8a64"/><rect x="108.30" y="44.68" width="2.3" height="90.65" rx="1.1" fill="#ff8a64"/><rect x="111.95" y="44.08" width="2.3" height="91.84" rx="1.1" fill="#ff8a64"/><rect x="115.60" y="45.15" width="2.3" height="89.71" rx="1.1" fill="#ff8a64"/><rect x="119.25" y="45.19" width="2.3" height="89.62" rx="1.1" fill="#ff8a64"/><rect x="122.90" y="46.22" width="2.3" height="87.55" rx="1.1" fill="#ff8a64"/><rect x="126.55" y="47.30" width="2.3" height="85.41" rx="1.1" fill="#ff8a64"/><rect x="130.20" y="48.99" width="2.3" height="82.02" rx="1.1" fill="#ff8a64"/><rect x="133.85" y="51.53" width="2.3" height="76.95" rx="1.1" fill="#ff8a64"/><rect x="137.50" y="53.30" width="2.3" height="73.40" rx="1.1" fill="#ff8a64"/><rect x="141.15" y="55.64" width="2.3" height="68.72" rx="1.1" fill="#ff8a64"/><rect x="144.80" y="59.10" width="2.3" height="61.80" rx="1.1" fill="#ff8a64"/><rect x="148.45" y="62.10" width="2.3" height="55.79" rx="1.1" fill="#ff8a64"/><rect x="152.10" y="65.33" width="2.3" height="49.33" rx="1.1" fill="#ff8a64"/><rect x="155.75" y="69.16" width="2.3" height="41.67" rx="1.1" fill="#ff8a64"/><rect x="159.40" y="72.41" width="2.3" height="35.19" rx="1.1" fill="#ff8a64"/><rect x="163.05" y="77.10" width="2.3" height="25.81" rx="1.1" fill="#ff8a64"/><rect x="166.70" y="81.45" width="2.3" height="17.10" rx="1.1" fill="#ff8a64"/><rect x="170.35" y="85.22" width="2.3" height="9.56" rx="1.1" fill="#ff8a64"/><rect x="174.00" y="89.00" width="2.3" height="2.00" rx="1.1" fill="#ff8a64"/><rect x="177.65" y="89.00" width="2.3" height="2.00" rx="1.1" fill="#ff8a64"/><rect x="181.30" y="89.00" width="2.3" height="2.00" rx="1.1" fill="#ff8a64"/><rect x="184.95" y="89.00" width="2.3" height="2.00" rx="1.1" fill="#ff8a64"/><rect x="188.60" y="89.00" width="2.3" height="2.00" rx="1.1" fill="#ff8a64"/><rect x="192.25" y="89.00" width="2.3" height="2.00" rx="1.1" fill="#ff8a64"/><rect x="195.90" y="89.00" width="2.3" height="2.00" rx="1.1" fill="#ff8a64"/><rect x="199.55" y="89.00" width="2.3" height="2.00" rx="1.1" fill="#ff8a64"/><rect x="203.20" y="89.00" width="2.3" height="2.00" rx="1.1" fill="#ff8a64"/><rect x="206.85" y="89.00" width="2.3" height="2.00" rx="1.1" fill="#ff8a64"/><rect x="210.50" y="89.00" width="2.3" height="2.00" rx="1.1" fill="#ff8a64"/><rect x="214.15" y="89.00" width="2.3" height="2.00" rx="1.1" fill="#ff8a64"/><rect x="217.80" y="89.00" width="2.3" height="2.00" rx="1.1" fill="#ff8a64"/><rect x="221.45" y="89.00" width="2.3" height="2.00" rx="1.1" fill="#ff8a64"/><rect x="225.10" y="89.00" width="2.3" height="2.00" rx="1.1" fill="#ff8a64"/><rect x="228.75" y="89.00" width="2.3" height="2.00" rx="1.1" fill="#ff8a64"/><rect x="232.40" y="89.00" width="2.3" height="2.00" rx="1.1" fill="#ff8a64"/><rect x="236.05" y="89.00" width="2.3" height="2.00" rx="1.1" fill="#ff8a64"/><rect x="239.70" y="89.00" width="2.3" height="2.00" rx="1.1" fill="#ff8a64"/><rect x="243.35" y="89.00" width="2.3" height="2.00" rx="1.1" fill="#ff8a64"/><rect x="247.00" y="89.00" width="2.3" height="2.00" rx="1.1" fill="#ff8a64"/><rect x="250.65" y="89.00" width="2.3" height="2.00" rx="1.1" fill="#ff8a64"/><rect x="254.30" y="89.00" width="2.3" height="2.00" rx="1.1" fill="#ff8a64"/><rect x="257.95" y="89.00" width="2.3" height="2.00" rx="1.1" fill="#ff8a64"/><rect x="261.60" y="89.00" width="2.3" height="2.00" rx="1.1" fill="#ff8a64"/><rect x="265.25" y="89.00" width="2.3" height="2.00" rx="1.1" fill="#ff8a64"/><rect x="268.90" y="89.00" width="2.3" height="2.00" rx="1.1" fill="#ff8a64"/><rect x="272.55" y="89.00" width="2.3" height="2.00" rx="1.1" fill="#ff8a64"/><rect x="276.20" y="89.00" width="2.3" height="2.00" rx="1.1" fill="#ff8a64"/><rect x="279.85" y="89.00" width="2.3" height="2.00" rx="1.1" fill="#ff8a64"/><rect x="283.50" y="89.00" width="2.3" height="2.00" rx="1.1" fill="#ff8a64"/><rect x="287.15" y="89.00" width="2.3" height="2.00" rx="1.1" fill="#ff8a64"/><rect x="290.80" y="89.00" width="2.3" height="2.00" rx="1.1" fill="#ff8a64"/><rect x="294.45" y="89.00" width="2.3" height="2.00" rx="1.1" fill="#ff8a64"/><rect x="298.10" y="89.00" width="2.3" height="2.00" rx="1.1" fill="#ff8a64"/><rect x="301.75" y="89.00" width="2.3" height="2.00" rx="1.1" fill="#ff8a64"/><rect x="305.40" y="89.00" width="2.3" height="2.00" rx="1.1" fill="#ff8a64"/><rect x="309.05" y="89.00" width="2.3" height="2.00" rx="1.1" fill="#ff8a64"/><rect x="312.70" y="89.00" width="2.3" height="2.00" rx="1.1" fill="#ff8a64"/><rect x="316.35" y="89.00" width="2.3" height="2.00" rx="1.1" fill="#ff8a64"/><rect x="320.00" y="89.00" width="2.3" height="2.00" rx="1.1" fill="#ff8a64"/><rect x="323.65" y="87.78" width="2.3" height="4.43" rx="1.1" fill="#ff8a64"/><rect x="327.30" y="86.41" width="2.3" height="7.18" rx="1.1" fill="#ff8a64"/><rect x="330.95" y="84.82" width="2.3" height="10.36" rx="1.1" fill="#ff8a64"/><rect x="334.60" y="83.40" width="2.3" height="13.19" rx="1.1" fill="#ff8a64"/><rect x="338.25" y="82.54" width="2.3" height="14.93" rx="1.1" fill="#ff8a64"/><rect x="341.90" y="81.24" width="2.3" height="17.53" rx="1.1" fill="#ff8a64"/><rect x="345.55" y="80.42" width="2.3" height="19.16" rx="1.1" fill="#ff8a64"/><rect x="349.20" y="79.80" width="2.3" height="20.39" rx="1.1" fill="#ff8a64"/><rect x="352.85" y="78.77" width="2.3" height="22.46" rx="1.1" fill="#ff8a64"/><rect x="356.50" y="78.51" width="2.3" height="22.99" rx="1.1" fill="#ff8a64"/><rect x="360.15" y="78.10" width="2.3" height="23.81" rx="1.1" fill="#ff8a64"/><rect x="363.80" y="78.09" width="2.3" height="23.82" rx="1.1" fill="#ff8a64"/><rect x="367.45" y="77.88" width="2.3" height="24.24" rx="1.1" fill="#ff8a64"/><rect x="371.10" y="78.09" width="2.3" height="23.82" rx="1.1" fill="#ff8a64"/><rect x="374.75" y="77.95" width="2.3" height="24.11" rx="1.1" fill="#ff8a64"/><rect x="378.40" y="78.42" width="2.3" height="23.16" rx="1.1" fill="#ff8a64"/><rect x="382.05" y="78.50" width="2.3" height="22.99" rx="1.1" fill="#ff8a64"/><rect x="385.70" y="78.87" width="2.3" height="22.27" rx="1.1" fill="#ff8a64"/><rect x="389.35" y="79.39" width="2.3" height="21.22" rx="1.1" fill="#ff8a64"/><rect x="393.00" y="79.92" width="2.3" height="20.15" rx="1.1" fill="#ff8a64"/><rect x="396.65" y="80.27" width="2.3" height="19.45" rx="1.1" fill="#ff8a64"/><rect x="400.30" y="80.81" width="2.3" height="18.39" rx="1.1" fill="#ff8a64"/><rect x="403.95" y="81.49" width="2.3" height="17.02" rx="1.1" fill="#ff8a64"/><rect x="407.60" y="82.11" width="2.3" height="15.78" rx="1.1" fill="#ff8a64"/><rect x="411.25" y="82.83" width="2.3" height="14.34" rx="1.1" fill="#ff8a64"/><rect x="414.90" y="83.11" width="2.3" height="13.77" rx="1.1" fill="#ff8a64"/><rect x="418.55" y="84.01" width="2.3" height="11.98" rx="1.1" fill="#ff8a64"/><rect x="422.20" y="84.57" width="2.3" height="10.86" rx="1.1" fill="#ff8a64"/><rect x="425.85" y="85.07" width="2.3" height="9.85" rx="1.1" fill="#ff8a64"/><rect x="429.50" y="85.58" width="2.3" height="8.83" rx="1.1" fill="#ff8a64"/><rect x="433.15" y="86.40" width="2.3" height="7.20" rx="1.1" fill="#ff8a64"/><rect x="436.80" y="86.90" width="2.3" height="6.20" rx="1.1" fill="#ff8a64"/><rect x="440.45" y="87.34" width="2.3" height="5.33" rx="1.1" fill="#ff8a64"/><rect x="444.10" y="87.87" width="2.3" height="4.26" rx="1.1" fill="#ff8a64"/><rect x="447.75" y="88.27" width="2.3" height="3.47" rx="1.1" fill="#ff8a64"/><rect x="451.40" y="88.60" width="2.3" height="2.81" rx="1.1" fill="#ff8a64"/><rect x="455.05" y="88.94" width="2.3" height="2.12" rx="1.1" fill="#ff8a64"/><rect x="458.70" y="89.00" width="2.3" height="2.00" rx="1.1" fill="#ff8a64"/><rect x="462.35" y="89.00" width="2.3" height="2.00" rx="1.1" fill="#ff8a64"/><rect x="466.00" y="89.00" width="2.3" height="2.00" rx="1.1" fill="#ff8a64"/><rect x="469.65" y="89.00" width="2.3" height="2.00" rx="1.1" fill="#ff8a64"/><rect x="473.30" y="89.00" width="2.3" height="2.00" rx="1.1" fill="#ff8a64"/><rect x="476.95" y="89.00" width="2.3" height="2.00" rx="1.1" fill="#ff8a64"/><rect x="480.60" y="89.00" width="2.3" height="2.00" rx="1.1" fill="#ff8a64"/><rect x="484.25" y="89.00" width="2.3" height="2.00" rx="1.1" fill="#ff8a64"/><rect x="487.90" y="89.00" width="2.3" height="2.00" rx="1.1" fill="#ff8a64"/><rect x="491.55" y="89.00" width="2.3" height="2.00" rx="1.1" fill="#ff8a64"/><rect x="495.20" y="89.00" width="2.3" height="2.00" rx="1.1" fill="#ff8a64"/><rect x="498.85" y="89.00" width="2.3" height="2.00" rx="1.1" fill="#ff8a64"/><rect x="502.50" y="89.00" width="2.3" height="2.00" rx="1.1" fill="#ff8a64"/><rect x="506.15" y="89.00" width="2.3" height="2.00" rx="1.1" fill="#ff8a64"/><rect x="509.80" y="89.00" width="2.3" height="2.00" rx="1.1" fill="#ff8a64"/><rect x="513.45" y="89.00" width="2.3" height="2.00" rx="1.1" fill="#ff8a64"/><rect x="517.10" y="89.00" width="2.3" height="2.00" rx="1.1" fill="#ff8a64"/><rect x="520.75" y="89.00" width="2.3" height="2.00" rx="1.1" fill="#ff8a64"/><rect x="524.40" y="89.00" width="2.3" height="2.00" rx="1.1" fill="#ff8a64"/><rect x="528.05" y="89.00" width="2.3" height="2.00" rx="1.1" fill="#ff8a64"/><rect x="531.70" y="89.00" width="2.3" height="2.00" rx="1.1" fill="#ff8a64"/><rect x="535.35" y="89.00" width="2.3" height="2.00" rx="1.1" fill="#ff8a64"/><rect x="539.00" y="89.00" width="2.3" height="2.00" rx="1.1" fill="#ff8a64"/><rect x="542.65" y="89.00" width="2.3" height="2.00" rx="1.1" fill="#ff8a64"/><rect x="546.30" y="89.00" width="2.3" height="2.00" rx="1.1" fill="#ff8a64"/><rect x="549.95" y="89.00" width="2.3" height="2.00" rx="1.1" fill="#ff8a64"/><rect x="553.60" y="89.00" width="2.3" height="2.00" rx="1.1" fill="#ff8a64"/><rect x="557.25" y="89.00" width="2.3" height="2.00" rx="1.1" fill="#ff8a64"/><rect x="560.90" y="89.00" width="2.3" height="2.00" rx="1.1" fill="#ff8a64"/><rect x="564.55" y="89.00" width="2.3" height="2.00" rx="1.1" fill="#ff8a64"/><rect x="568.20" y="89.00" width="2.3" height="2.00" rx="1.1" fill="#ff8a64"/><rect x="571.85" y="89.00" width="2.3" height="2.00" rx="1.1" fill="#ff8a64"/><rect x="575.50" y="89.00" width="2.3" height="2.00" rx="1.1" fill="#ff8a64"/><rect x="579.15" y="89.00" width="2.3" height="2.00" rx="1.1" fill="#ff8a64"/><rect x="582.80" y="89.00" width="2.3" height="2.00" rx="1.1" fill="#ff8a64"/><rect x="586.45" y="89.00" width="2.3" height="2.00" rx="1.1" fill="#ff8a64"/><rect x="590.10" y="89.00" width="2.3" height="2.00" rx="1.1" fill="#ff8a64"/><rect x="593.75" y="89.00" width="2.3" height="2.00" rx="1.1" fill="#ff8a64"/><rect x="597.40" y="89.00" width="2.3" height="2.00" rx="1.1" fill="#ff8a64"/><rect x="601.05" y="89.00" width="2.3" height="2.00" rx="1.1" fill="#ff8a64"/><rect x="604.70" y="89.00" width="2.3" height="2.00" rx="1.1" fill="#ff8a64"/><rect x="608.35" y="89.00" width="2.3" height="2.00" rx="1.1" fill="#ff8a64"/></g>
</svg>
