<svg xmlns="http://www.w3.org/2000/svg" width="640" height="180" viewBox="0 0 640 180" role="img" aria-label="Alert 1 waveform">
  <rect width="640" height="180" rx="18" fill="#10171d"/>
  <rect x="1" y="1" width="638" height="178" rx="17" fill="none" stroke="#2d3943" stroke-width="2"/>
  <text x="28" y="38" fill="#f6fbff" font-family="Inter, Arial, sans-serif" font-weight="850" font-size="24">Alert 1</text>
  <text x="612" y="38" fill="#ff8a64" text-anchor="end" font-family="Inter, Arial, sans-serif" font-weight="800" font-size="16">276 ms</text>
  <g opacity="0.96"><rect x="28.00" y="76.33" width="2.3" height="27.33" rx="1.1" fill="#ff8a64"/><rect x="31.65" y="79.38" width="2.3" height="21.24" rx="1.1" fill="#ff8a64"/><rect x="35.30" y="82.12" width="2.3" height="15.77" rx="1.1" fill="#ff8a64"/><rect x="38.95" y="83.65" width="2.3" height="12.70" rx="1.1" fill="#ff8a64"/><rect x="42.60" y="84.44" width="2.3" height="11.11" rx="1.1" fill="#ff8a64"/><rect x="46.25" y="84.13" width="2.3" height="11.73" rx="1.1" fill="#ff8a64"/><rect x="49.90" y="83.06" width="2.3" height="13.88" rx="1.1" fill="#ff8a64"/><rect x="53.55" y="81.38" width="2.3" height="17.24" rx="1.1" fill="#ff8a64"/><rect x="57.20" y="78.56" width="2.3" height="22.87" rx="1.1" fill="#ff8a64"/><rect x="60.85" y="76.00" width="2.3" height="28.01" rx="1.1" fill="#ff8a64"/><rect x="64.50" y="74.00" width="2.3" height="31.99" rx="1.1" fill="#ff8a64"/><rect x="68.15" y="72.92" width="2.3" height="34.15" rx="1.1" fill="#ff8a64"/><rect x="71.80" y="70.71" width="2.3" height="38.58" rx="1.1" fill="#ff8a64"/><rect x="75.45" y="68.02" width="2.3" height="43.96" rx="1.1" fill="#ff8a64"/><rect x="79.10" y="63.48" width="2.3" height="53.03" rx="1.1" fill="#ff8a64"/><rect x="82.75" y="62.44" width="2.3" height="55.13" rx="1.1" fill="#ff8a64"/><rect x="86.40" y="59.48" width="2.3" height="61.04" rx="1.1" fill="#ff8a64"/><rect x="90.05" y="58.10" width="2.3" height="63.81" rx="1.1" fill="#ff8a64"/><rect x="93.70" y="56.17" width="2.3" height="67.67" rx="1.1" fill="#ff8a64"/><rect x="97.35" y="53.88" width="2.3" height="72.25" rx="1.1" fill="#ff8a64"/><rect x="101.00" y="52.51" width="2.3" height="74.98" rx="1.1" fill="#ff8a64"/><rect x="104.65" y="49.66" width="2.3" height="80.68" rx="1.1" fill="#ff8a64"/><rect x="108.30" y="50.45" width="2.3" height="79.10" rx="1.1" fill="#ff8a64"/><rect x="111.95" y="48.49" width="2.3" height="83.02" rx="1.1" fill="#ff8a64"/><rect x="115.60" y="45.18" width="2.3" height="89.63" rx="1.1" fill="#ff8a64"/><rect x="119.25" y="45.28" width="2.3" height="89.45" rx="1.1" fill="#ff8a64"/><rect x="122.90" y="44.79" width="2.3" height="90.42" rx="1.1" fill="#ff8a64"/><rect x="126.55" y="44.56" width="2.3" height="90.87" rx="1.1" fill="#ff8a64"/><rect x="130.20" y="44.31" width="2.3" height="91.38" rx="1.1" fill="#ff8a64"/><rect x="133.85" y="44.08" width="2.3" height="91.84" rx="1.1" fill="#ff8a64"/><rect x="137.50" y="45.13" width="2.3" height="89.73" rx="1.1" fill="#ff8a64"/><rect x="141.15" y="44.99" width="2.3" height="90.03" rx="1.1" fill="#ff8a64"/><rect x="144.80" y="44.84" width="2.3" height="90.31" rx="1.1" fill="#ff8a64"/><rect x="148.45" y="46.34" width="2.3" height="87.32" rx="1.1" fill="#ff8a64"/><rect x="152.10" y="47.54" width="2.3" height="84.93" rx="1.1" fill="#ff8a64"/><rect x="155.75" y="48.69" width="2.3" height="82.63" rx="1.1" fill="#ff8a64"/><rect x="159.40" y="50.35" width="2.3" height="79.30" rx="1.1" fill="#ff8a64"/><rect x="163.05" y="51.98" width="2.3" height="76.04" rx="1.1" fill="#ff8a64"/><rect x="166.70" y="53.14" width="2.3" height="73.71" rx="1.1" fill="#ff8a64"/><rect x="170.35" y="55.07" width="2.3" height="69.86" rx="1.1" fill="#ff8a64"/><rect x="174.00" y="56.75" width="2.3" height="66.50" rx="1.1" fill="#ff8a64"/><rect x="177.65" y="60.48" width="2.3" height="59.03" rx="1.1" fill="#ff8a64"/><rect x="181.30" y="60.73" width="2.3" height="58.54" rx="1.1" fill="#ff8a64"/><rect x="184.95" y="64.47" width="2.3" height="51.06" rx="1.1" fill="#ff8a64"/><rect x="188.60" y="66.71" width="2.3" height="46.58" rx="1.1" fill="#ff8a64"/><rect x="192.25" y="69.11" width="2.3" height="41.78" rx="1.1" fill="#ff8a64"/><rect x="195.90" y="71.14" width="2.3" height="37.71" rx="1.1" fill="#ff8a64"/><rect x="199.55" y="73.31" width="2.3" height="33.39" rx="1.1" fill="#ff8a64"/><rect x="203.20" y="76.84" width="2.3" height="26.32" rx="1.1" fill="#ff8a64"/><rect x="206.85" y="79.40" width="2.3" height="21.21" rx="1.1" fill="#ff8a64"/><rect x="210.50" y="81.42" width="2.3" height="17.16" rx="1.1" fill="#ff8a64"/><rect x="214.15" y="84.53" width="2.3" height="10.94" rx="1.1" fill="#ff8a64"/><rect x="217.80" y="87.53" width="2.3" height="4.94" rx="1.1" fill="#ff8a64"/><rect x="221.45" y="89.00" width="2.3" height="2.00" rx="1.1" fill="#ff8a64"/><rect x="225.10" y="89.00" width="2.3" height="2.00" rx="1.1" fill="#ff8a64"/><rect x="228.75" y="89.00" width="2.3" height="2.00" rx="1.1" fill="#ff8a64"/><rect x="232.40" y="89.00" width="2.3" height="2.00" rx="1.1" fill="#ff8a64"/><rect x="236.05" y="89.00" width="2.3" height="2.00" rx="1.1" fill="#ff8a64"/><rect x="239.70" y="89.00" width="2.3" height="2.00" rx="1.1" fill="#ff8a64"/><rect x="243.35" y="89.00" width="2.3" height="2.00" rx="1.1" fill="#ff8a64"/><rect x="247.00" y="89.00" width="2.3" height="2.00" rx="1.1" fill="#ff8a64"/><rect x="250.65" y="89.00" width="2.3" height="2.00" rx="1.1" fill="#ff8a64"/><rect x="254.30" y="89.00" width="2.3" height="2.00" rx="1.1" fill="#ff8a64"/><rect x="257.95" y="89.00" width="2.3" height="2.00" rx="1.1" fill="#ff8a64"/><rect x="261.60" y="89.00" width="2.3" height="2.00" rx="1.1" fill="#ff8a64"/><rect x="265.25" y="89.00" width="2.3" height="2.00" rx="1.1" fill="#ff8a64"/><rect x="268.90" y="89.00" width="2.3" height="2.00" rx="1.1" fill="#ff8a64"/><rect x="272.55" y="89.00" width="2.3" height="2.00" rx="1.1" fill="#ff8a64"/><rect x="276.20" y="89.00" width="2.3" height="2.00" rx="1.1" fill="#ff8a64"/><rect x="279.85" y="89.00" width="2.3" height="2.00" rx="1.1" fill="#ff8a64"/><rect x="283.50" y="89.00" width="2.3" height="2.00" rx="1.1" fill="#ff8a64"/><rect x="287.15" y="89.00" width="2.3" height="2.00" rx="1.1" fill="#ff8a64"/><rect x="290.80" y="89.00" width="2.3" height="2.00" rx="1.1" fill="#ff8a64"/><rect x="294.45" y="89.00" width="2.3" height="2.00" rx="1.1" fill="#ff8a64"/><rect x="298.10" y="89.00" width="2.3" height="2.00" rx="1.1" fill="#ff8a64"/><rect x="301.75" y="89.00" width="2.3" height="2.00" rx="1.1" fill="#ff8a64"/><rect x="305.40" y="89.00" width="2.3" height="2.00" rx="1.1" fill="#ff8a64"/><rect x="309.05" y="89.00" width="2.3" height="2.00" rx="1.1" fill="#ff8a64"/><rect x="312.70" y="89.00" width="2.3" height="2.00" rx="1.1" fill="#ff8a64"/><rect x="316.35" y="89.00" width="2.3" height="2.00" rx="1.1" fill="#ff8a64"/><rect x="320.00" y="89.00" width="2.3" height="2.00" rx="1.1" fill="#ff8a64"/><rect x="323.65" y="89.00" width="2.3" height="2.00" rx="1.1" fill="#ff8a64"/><rect x="327.30" y="89.00" width="2.3" height="2.00" rx="1.1" fill="#ff8a64"/><rect x="330.95" y="89.00" width="2.3" height="2.00" rx="1.1" fill="#ff8a64"/><rect x="334.60" y="89.00" width="2.3" height="2.00" rx="1.1" fill="#ff8a64"/><rect x="338.25" y="89.00" width="2.3" height="2.00" rx="1.1" fill="#ff8a64"/><rect x="341.90" y="89.00" width="2.3" height="2.00" rx="1.1" fill="#ff8a64"/><rect x="345.55" y="89.00" width="2.3" height="2.00" rx="1.1" fill="#ff8a64"/><rect x="349.20" y="89.00" width="2.3" height="2.00" rx="1.1" fill="#ff8a64"/><rect x="352.85" y="89.00" width="2.3" height="2.00" rx="1.1" fill="#ff8a64"/><rect x="356.50" y="89.00" width="2.3" height="2.00" rx="1.1" fill="#ff8a64"/><rect x="360.15" y="89.00" width="2.3" height="2.00" rx="1.1" fill="#ff8a64"/><rect x="363.80" y="89.00" width="2.3" height="2.00" rx="1.1" fill="#ff8a64"/><rect x="367.45" y="89.00" width="2.3" height="2.00" rx="1.1" fill="#ff8a64"/><rect x="371.10" y="89.00" width="2.3" height="2.00" rx="1.1" fill="#ff8a64"/><rect x="374.75" y="89.00" width="2.3" height="2.00" rx="1.1" fill="#ff8a64"/><rect x="378.40" y="89.00" width="2.3" height="2.00" rx="1.1" fill="#ff8a64"/><rect x="382.05" y="89.00" width="2.3" height="2.00" rx="1.1" fill="#ff8a64"/><rect x="385.70" y="89.00" width="2.3" height="2.00" rx="1.1" fill="#ff8a64"/><rect x="389.35" y="89.00" width="2.3" height="2.00" rx="1.1" fill="#ff8a64"/><rect x="393.00" y="89.00" width="2.3" height="2.00" rx="1.1" fill="#ff8a64"/><rect x="396.65" y="89.00" width="2.3" height="2.00" rx="1.1" fill="#ff8a64"/><rect x="400.30" y="89.00" width="2.3" height="2.00" rx="1.1" fill="#ff8a64"/><rect x="403.95" y="89.00" width="2.3" height="2.00" rx="1.1" fill="#ff8a64"/><rect x="407.60" y="89.00" width="2.3" height="2.00" rx="1.1" fill="#ff8a64"/><rect x="411.25" y="89.00" width="2.3" height="2.00" rx="1.1" fill="#ff8a64"/><rect x="414.90" y="89.00" width="2.3" height="2.00" rx="1.1" fill="#ff8a64"/><rect x="418.55" y="89.00" width="2.3" height="2.00" rx="1.1" fill="#ff8a64"/><rect x="422.20" y="89.00" width="2.3" height="2.00" rx="1.1" fill="#ff8a64"/><rect x="425.85" y="89.00" width="2.3" height="2.00" rx="1.1" fill="#ff8a64"/><rect x="429.50" y="88.93" width="2.3" height="2.15" rx="1.1" fill="#ff8a64"/><rect x="433.15" y="88.79" width="2.3" height="2.43" rx="1.1" fill="#ff8a64"/><rect x="436.80" y="88.66" width="2.3" height="2.69" rx="1.1" fill="#ff8a64"/><rect x="440.45" y="88.53" width="2.3" height="2.94" rx="1.1" fill="#ff8a64"/><rect x="444.10" y="88.38" width="2.3" height="3.25" rx="1.1" fill="#ff8a64"/><rect x="447.75" y="88.40" width="2.3" height="3.21" rx="1.1" fill="#ff8a64"/><rect x="451.40" y="88.36" width="2.3" height="3.29" rx="1.1" fill="#ff8a64"/><rect x="455.05" y="88.34" width="2.3" height="3.33" rx="1.1" fill="#ff8a64"/><rect x="458.70" y="88.38" width="2.3" height="3.24" rx="1.1" fill="#ff8a64"/><rect x="462.35" y="88.44" width="2.3" height="3.13" rx="1.1" fill="#ff8a64"/><rect x="466.00" y="88.44" width="2.3" height="3.12" rx="1.1" fill="#ff8a64"/><rect x="469.65" y="88.54" width="2.3" height="2.91" rx="1.1" fill="#ff8a64"/><rect x="473.30" y="88.55" width="2.3" height="2.89" rx="1.1" fill="#ff8a64"/><rect x="476.95" y="88.62" width="2.3" height="2.76" rx="1.1" fill="#ff8a64"/><rect x="480.60" y="88.70" width="2.3" height="2.60" rx="1.1" fill="#ff8a64"/><rect x="484.25" y="88.80" width="2.3" height="2.41" rx="1.1" fill="#ff8a64"/><rect x="487.90" y="88.89" width="2.3" height="2.22" rx="1.1" fill="#ff8a64"/><rect x="491.55" y="88.96" width="2.3" height="2.07" rx="1.1" fill="#ff8a64"/><rect x="495.20" y="89.00" width="2.3" height="2.00" rx="1.1" fill="#ff8a64"/><rect x="498.85" y="89.00" width="2.3" height="2.00" rx="1.1" fill="#ff8a64"/><rect x="502.50" y="89.00" width="2.3" height="2.00" rx="1.1" fill="#ff8a64"/><rect x="506.15" y="89.00" width="2.3" height="2.00" rx="1.1" fill="#ff8a64"/><rect x="509.80" y="89.00" width="2.3" height="2.00" rx="1.1" fill="#ff8a64"/><rect x="513.45" y="89.00" width="2.3" height="2.00" rx="1.1" fill="#ff8a64"/><rect x="517.10" y="89.00" width="2.3" height="2.00" rx="1.1" fill="#ff8a64"/><rect x="520.75" y="89.00" width="2.3" height="2.00" rx="1.1" fill="#ff8a64"/><rect x="524.40" y="89.00" width="2.3" height="2.00" rx="1.1" fill="#ff8a64"/><rect x="528.05" y="89.00" width="2.3" height="2.00" rx="1.1" fill="#ff8a64"/><rect x="531.70" y="89.00" width="2.3" height="2.00" rx="1.1" fill="#ff8a64"/><rect x="535.35" y="89.00" width="2.3" height="2.00" rx="1.1" fill="#ff8a64"/><rect x="539.00" y="89.00" width="2.3" height="2.00" rx="1.1" fill="#ff8a64"/><rect x="542.65" y="89.00" width="2.3" height="2.00" rx="1.1" fill="#ff8a64"/><rect x="546.30" y="89.00" width="2.3" height="2.00" rx="1.1" fill="#ff8a64"/><rect x="549.95" y="89.00" width="2.3" height="2.00" rx="1.1" fill="#ff8a64"/><rect x="553.60" y="89.00" width="2.3" height="2.00" rx="1.1" fill="#ff8a64"/><rect x="557.25" y="89.00" width="2.3" height="2.00" rx="1.1" fill="#ff8a64"/><rect x="560.90" y="89.00" width="2.3" height="2.00" rx="1.1" fill="#ff8a64"/><rect x="564.55" y="89.00" width="2.3" height="2.00" rx="1.1" fill="#ff8a64"/><rect x="568.20" y="89.00" width="2.3" height="2.00" rx="1.1" fill="#ff8a64"/><rect x="571.85" y="89.00" width="2.3" height="2.00" rx="1.1" fill="#ff8a64"/><rect x="575.50" y="89.00" width="2.3" height="2.00" rx="1.1" fill="#ff8a64"/><rect x="579.15" y="89.00" width="2.3" height="2.00" rx="1.1" fill="#ff8a64"/><rect x="582.80" y="89.00" width="2.3" height="2.00" rx="1.1" fill="#ff8a64"/><rect x="586.45" y="89.00" width="2.3" height="2.00" rx="1.1" fill="#ff8a64"/><rect x="590.10" y="89.00" width="2.3" height="2.00" rx="1.1" fill="#ff8a64"/><rect x="593.75" y="89.00" width="2.3" height="2.00" rx="1.1" fill="#ff8a64"/><rect x="597.40" y="89.00" width="2.3" height="2.00" rx="1.1" fill="#ff8a64"/><rect x="601.05" y="89.00" width="2.3" height="2.00" rx="1.1" fill="#ff8a64"/><rect x="604.70" y="89.00" width="2.3" height="2.00" rx="1.1" fill="#ff8a64"/><rect x="608.35" y="89.00" width="2.3" height="2.00" rx="1.1" fill="#ff8a64"/></g>
</svg>
