<svg xmlns="http://www.w3.org/2000/svg" width="640" height="180" viewBox="0 0 640 180" role="img" aria-label="Click 8 waveform">
  <rect width="640" height="180" rx="18" fill="#10171d"/>
  <rect x="1" y="1" width="638" height="178" rx="17" fill="none" stroke="#2d3943" stroke-width="2"/>
  <text x="28" y="38" fill="#f6fbff" font-family="Inter, Arial, sans-serif" font-weight="850" font-size="24">Click 8</text>
  <text x="612" y="38" fill="#7cf5b2" text-anchor="end" font-family="Inter, Arial, sans-serif" font-weight="800" font-size="16">133 ms</text>
  <g opacity="0.96"><rect x="28.00" y="71.61" width="2.3" height="36.78" rx="1.1" fill="#7cf5b2"/><rect x="31.65" y="68.90" width="2.3" height="42.20" rx="1.1" fill="#7cf5b2"/><rect x="35.30" y="63.74" width="2.3" height="52.52" rx="1.1" fill="#7cf5b2"/><rect x="38.95" y="58.85" width="2.3" height="62.31" rx="1.1" fill="#7cf5b2"/><rect x="42.60" y="57.80" width="2.3" height="64.39" rx="1.1" fill="#7cf5b2"/><rect x="46.25" y="54.03" width="2.3" height="71.94" rx="1.1" fill="#7cf5b2"/><rect x="49.90" y="51.63" width="2.3" height="76.75" rx="1.1" fill="#7cf5b2"/><rect x="53.55" y="45.56" width="2.3" height="88.87" rx="1.1" fill="#7cf5b2"/><rect x="57.20" y="44.08" width="2.3" height="91.84" rx="1.1" fill="#7cf5b2"/><rect x="60.85" y="45.38" width="2.3" height="89.24" rx="1.1" fill="#7cf5b2"/><rect x="64.50" y="45.33" width="2.3" height="89.35" rx="1.1" fill="#7cf5b2"/><rect x="68.15" y="49.28" width="2.3" height="81.44" rx="1.1" fill="#7cf5b2"/><rect x="71.80" y="52.28" width="2.3" height="75.45" rx="1.1" fill="#7cf5b2"/><rect x="75.45" y="52.80" width="2.3" height="74.41" rx="1.1" fill="#7cf5b2"/><rect x="79.10" y="58.06" width="2.3" height="63.88" rx="1.1" fill="#7cf5b2"/><rect x="82.75" y="57.96" width="2.3" height="64.08" rx="1.1" fill="#7cf5b2"/><rect x="86.40" y="62.24" width="2.3" height="55.52" rx="1.1" fill="#7cf5b2"/><rect x="90.05" y="62.68" width="2.3" height="54.64" rx="1.1" fill="#7cf5b2"/><rect x="93.70" y="63.59" width="2.3" height="52.82" rx="1.1" fill="#7cf5b2"/><rect x="97.35" y="65.63" width="2.3" height="48.73" rx="1.1" fill="#7cf5b2"/><rect x="101.00" y="67.21" width="2.3" height="45.57" rx="1.1" fill="#7cf5b2"/><rect x="104.65" y="68.61" width="2.3" height="42.78" rx="1.1" fill="#7cf5b2"/><rect x="108.30" y="70.47" width="2.3" height="39.07" rx="1.1" fill="#7cf5b2"/><rect x="111.95" y="70.59" width="2.3" height="38.82" rx="1.1" fill="#7cf5b2"/><rect x="115.60" y="72.25" width="2.3" height="35.51" rx="1.1" fill="#7cf5b2"/><rect x="119.25" y="73.75" width="2.3" height="32.50" rx="1.1" fill="#7cf5b2"/><rect x="122.90" y="74.11" width="2.3" height="31.77" rx="1.1" fill="#7cf5b2"/><rect x="126.55" y="75.84" width="2.3" height="28.33" rx="1.1" fill="#7cf5b2"/><rect x="130.20" y="76.33" width="2.3" height="27.33" rx="1.1" fill="#7cf5b2"/><rect x="133.85" y="79.28" width="2.3" height="21.43" rx="1.1" fill="#7cf5b2"/><rect x="137.50" y="78.13" width="2.3" height="23.74" rx="1.1" fill="#7cf5b2"/><rect x="141.15" y="78.69" width="2.3" height="22.62" rx="1.1" fill="#7cf5b2"/><rect x="144.80" y="79.74" width="2.3" height="20.52" rx="1.1" fill="#7cf5b2"/><rect x="148.45" y="80.20" width="2.3" height="19.61" rx="1.1" fill="#7cf5b2"/><rect x="152.10" y="81.14" width="2.3" height="17.73" rx="1.1" fill="#7cf5b2"/><rect x="155.75" y="81.76" width="2.3" height="16.48" rx="1.1" fill="#7cf5b2"/><rect x="159.40" y="82.50" width="2.3" height="15.00" rx="1.1" fill="#7cf5b2"/><rect x="163.05" y="82.90" width="2.3" height="14.19" rx="1.1" fill="#7cf5b2"/><rect x="166.70" y="83.22" width="2.3" height="13.57" rx="1.1" fill="#7cf5b2"/><rect x="170.35" y="83.30" width="2.3" height="13.41" rx="1.1" fill="#7cf5b2"/><rect x="174.00" y="84.02" width="2.3" height="11.96" rx="1.1" fill="#7cf5b2"/><rect x="177.65" y="84.67" width="2.3" height="10.65" rx="1.1" fill="#7cf5b2"/><rect x="181.30" y="84.78" width="2.3" height="10.44" rx="1.1" fill="#7cf5b2"/><rect x="184.95" y="84.93" width="2.3" height="10.14" rx="1.1" fill="#7cf5b2"/><rect x="188.60" y="85.52" width="2.3" height="8.97" rx="1.1" fill="#7cf5b2"/><rect x="192.25" y="85.77" width="2.3" height="8.46" rx="1.1" fill="#7cf5b2"/><rect x="195.90" y="85.98" width="2.3" height="8.05" rx="1.1" fill="#7cf5b2"/><rect x="199.55" y="86.15" width="2.3" height="7.70" rx="1.1" fill="#7cf5b2"/><rect x="203.20" y="86.55" width="2.3" height="6.90" rx="1.1" fill="#7cf5b2"/><rect x="206.85" y="86.65" width="2.3" height="6.70" rx="1.1" fill="#7cf5b2"/><rect x="210.50" y="87.01" width="2.3" height="5.98" rx="1.1" fill="#7cf5b2"/><rect x="214.15" y="87.17" width="2.3" height="5.66" rx="1.1" fill="#7cf5b2"/><rect x="217.80" y="87.39" width="2.3" height="5.22" rx="1.1" fill="#7cf5b2"/><rect x="221.45" y="87.47" width="2.3" height="5.06" rx="1.1" fill="#7cf5b2"/><rect x="225.10" y="87.68" width="2.3" height="4.63" rx="1.1" fill="#7cf5b2"/><rect x="228.75" y="87.86" width="2.3" height="4.27" rx="1.1" fill="#7cf5b2"/><rect x="232.40" y="87.96" width="2.3" height="4.09" rx="1.1" fill="#7cf5b2"/><rect x="236.05" y="88.05" width="2.3" height="3.90" rx="1.1" fill="#7cf5b2"/><rect x="239.70" y="88.10" width="2.3" height="3.81" rx="1.1" fill="#7cf5b2"/><rect x="243.35" y="88.32" width="2.3" height="3.36" rx="1.1" fill="#7cf5b2"/><rect x="247.00" y="88.47" width="2.3" height="3.05" rx="1.1" fill="#7cf5b2"/><rect x="250.65" y="88.59" width="2.3" height="2.82" rx="1.1" fill="#7cf5b2"/><rect x="254.30" y="88.59" width="2.3" height="2.83" rx="1.1" fill="#7cf5b2"/><rect x="257.95" y="88.81" width="2.3" height="2.38" rx="1.1" fill="#7cf5b2"/><rect x="261.60" y="88.80" width="2.3" height="2.39" rx="1.1" fill="#7cf5b2"/><rect x="265.25" y="88.88" width="2.3" height="2.25" rx="1.1" fill="#7cf5b2"/><rect x="268.90" y="88.90" width="2.3" height="2.21" rx="1.1" fill="#7cf5b2"/><rect x="272.55" y="88.98" width="2.3" height="2.05" rx="1.1" fill="#7cf5b2"/><rect x="276.20" y="89.00" width="2.3" height="2.00" rx="1.1" fill="#7cf5b2"/><rect x="279.85" y="89.00" width="2.3" height="2.00" rx="1.1" fill="#7cf5b2"/><rect x="283.50" y="89.00" width="2.3" height="2.00" rx="1.1" fill="#7cf5b2"/><rect x="287.15" y="89.00" width="2.3" height="2.00" rx="1.1" fill="#7cf5b2"/><rect x="290.80" y="89.00" width="2.3" height="2.00" rx="1.1" fill="#7cf5b2"/><rect x="294.45" y="89.00" width="2.3" height="2.00" rx="1.1" fill="#7cf5b2"/><rect x="298.10" y="89.00" width="2.3" height="2.00" rx="1.1" fill="#7cf5b2"/><rect x="301.75" y="89.00" width="2.3" height="2.00" rx="1.1" fill="#7cf5b2"/><rect x="305.40" y="89.00" width="2.3" height="2.00" rx="1.1" fill="#7cf5b2"/><rect x="309.05" y="89.00" width="2.3" height="2.00" rx="1.1" fill="#7cf5b2"/><rect x="312.70" y="89.00" width="2.3" height="2.00" rx="1.1" fill="#7cf5b2"/><rect x="316.35" y="89.00" width="2.3" height="2.00" rx="1.1" fill="#7cf5b2"/><rect x="320.00" y="89.00" width="2.3" height="2.00" rx="1.1" fill="#7cf5b2"/><rect x="323.65" y="89.00" width="2.3" height="2.00" rx="1.1" fill="#7cf5b2"/><rect x="327.30" y="89.00" width="2.3" height="2.00" rx="1.1" fill="#7cf5b2"/><rect x="330.95" y="89.00" width="2.3" height="2.00" rx="1.1" fill="#7cf5b2"/><rect x="334.60" y="89.00" width="2.3" height="2.00" rx="1.1" fill="#7cf5b2"/><rect x="338.25" y="89.00" width="2.3" height="2.00" rx="1.1" fill="#7cf5b2"/><rect x="341.90" y="89.00" width="2.3" height="2.00" rx="1.1" fill="#7cf5b2"/><rect x="345.55" y="89.00" width="2.3" height="2.00" rx="1.1" fill="#7cf5b2"/><rect x="349.20" y="89.00" width="2.3" height="2.00" rx="1.1" fill="#7cf5b2"/><rect x="352.85" y="89.00" width="2.3" height="2.00" rx="1.1" fill="#7cf5b2"/><rect x="356.50" y="89.00" width="2.3" height="2.00" rx="1.1" fill="#7cf5b2"/><rect x="360.15" y="89.00" width="2.3" height="2.00" rx="1.1" fill="#7cf5b2"/><rect x="363.80" y="89.00" width="2.3" height="2.00" rx="1.1" fill="#7cf5b2"/><rect x="367.45" y="89.00" width="2.3" height="2.00" rx="1.1" fill="#7cf5b2"/><rect x="371.10" y="89.00" width="2.3" height="2.00" rx="1.1" fill="#7cf5b2"/><rect x="374.75" y="89.00" width="2.3" height="2.00" rx="1.1" fill="#7cf5b2"/><rect x="378.40" y="89.00" width="2.3" height="2.00" rx="1.1" fill="#7cf5b2"/><rect x="382.05" y="89.00" width="2.3" height="2.00" rx="1.1" fill="#7cf5b2"/><rect x="385.70" y="89.00" width="2.3" height="2.00" rx="1.1" fill="#7cf5b2"/><rect x="389.35" y="89.00" width="2.3" height="2.00" rx="1.1" fill="#7cf5b2"/><rect x="393.00" y="89.00" width="2.3" height="2.00" rx="1.1" fill="#7cf5b2"/><rect x="396.65" y="89.00" width="2.3" height="2.00" rx="1.1" fill="#7cf5b2"/><rect x="400.30" y="89.00" width="2.3" height="2.00" rx="1.1" fill="#7cf5b2"/><rect x="403.95" y="89.00" width="2.3" height="2.00" rx="1.1" fill="#7cf5b2"/><rect x="407.60" y="89.00" width="2.3" height="2.00" rx="1.1" fill="#7cf5b2"/><rect x="411.25" y="89.00" width="2.3" height="2.00" rx="1.1" fill="#7cf5b2"/><rect x="414.90" y="89.00" width="2.3" height="2.00" rx="1.1" fill="#7cf5b2"/><rect x="418.55" y="89.00" width="2.3" height="2.00" rx="1.1" fill="#7cf5b2"/><rect x="422.20" y="89.00" width="2.3" height="2.00" rx="1.1" fill="#7cf5b2"/><rect x="425.85" y="89.00" width="2.3" height="2.00" rx="1.1" fill="#7cf5b2"/><rect x="429.50" y="89.00" width="2.3" height="2.00" rx="1.1" fill="#7cf5b2"/><rect x="433.15" y="89.00" width="2.3" height="2.00" rx="1.1" fill="#7cf5b2"/><rect x="436.80" y="89.00" width="2.3" height="2.00" rx="1.1" fill="#7cf5b2"/><rect x="440.45" y="89.00" width="2.3" height="2.00" rx="1.1" fill="#7cf5b2"/><rect x="444.10" y="89.00" width="2.3" height="2.00" rx="1.1" fill="#7cf5b2"/><rect x="447.75" y="89.00" width="2.3" height="2.00" rx="1.1" fill="#7cf5b2"/><rect x="451.40" y="89.00" width="2.3" height="2.00" rx="1.1" fill="#7cf5b2"/><rect x="455.05" y="89.00" width="2.3" height="2.00" rx="1.1" fill="#7cf5b2"/><rect x="458.70" y="89.00" width="2.3" height="2.00" rx="1.1" fill="#7cf5b2"/><rect x="462.35" y="89.00" width="2.3" height="2.00" rx="1.1" fill="#7cf5b2"/><rect x="466.00" y="89.00" width="2.3" height="2.00" rx="1.1" fill="#7cf5b2"/><rect x="469.65" y="89.00" width="2.3" height="2.00" rx="1.1" fill="#7cf5b2"/><rect x="473.30" y="89.00" width="2.3" height="2.00" rx="1.1" fill="#7cf5b2"/><rect x="476.95" y="89.00" width="2.3" height="2.00" rx="1.1" fill="#7cf5b2"/><rect x="480.60" y="89.00" width="2.3" height="2.00" rx="1.1" fill="#7cf5b2"/><rect x="484.25" y="89.00" width="2.3" height="2.00" rx="1.1" fill="#7cf5b2"/><rect x="487.90" y="89.00" width="2.3" height="2.00" rx="1.1" fill="#7cf5b2"/><rect x="491.55" y="89.00" width="2.3" height="2.00" rx="1.1" fill="#7cf5b2"/><rect x="495.20" y="89.00" width="2.3" height="2.00" rx="1.1" fill="#7cf5b2"/><rect x="498.85" y="89.00" width="2.3" height="2.00" rx="1.1" fill="#7cf5b2"/><rect x="502.50" y="89.00" width="2.3" height="2.00" rx="1.1" fill="#7cf5b2"/><rect x="506.15" y="89.00" width="2.3" height="2.00" rx="1.1" fill="#7cf5b2"/><rect x="509.80" y="89.00" width="2.3" height="2.00" rx="1.1" fill="#7cf5b2"/><rect x="513.45" y="89.00" width="2.3" height="2.00" rx="1.1" fill="#7cf5b2"/><rect x="517.10" y="89.00" width="2.3" height="2.00" rx="1.1" fill="#7cf5b2"/><rect x="520.75" y="89.00" width="2.3" height="2.00" rx="1.1" fill="#7cf5b2"/><rect x="524.40" y="89.00" width="2.3" height="2.00" rx="1.1" fill="#7cf5b2"/><rect x="528.05" y="89.00" width="2.3" height="2.00" rx="1.1" fill="#7cf5b2"/><rect x="531.70" y="89.00" width="2.3" height="2.00" rx="1.1" fill="#7cf5b2"/><rect x="535.35" y="89.00" width="2.3" height="2.00" rx="1.1" fill="#7cf5b2"/><rect x="539.00" y="89.00" width="2.3" height="2.00" rx="1.1" fill="#7cf5b2"/><rect x="542.65" y="89.00" width="2.3" height="2.00" rx="1.1" fill="#7cf5b2"/><rect x="546.30" y="89.00" width="2.3" height="2.00" rx="1.1" fill="#7cf5b2"/><rect x="549.95" y="89.00" width="2.3" height="2.00" rx="1.1" fill="#7cf5b2"/><rect x="553.60" y="89.00" width="2.3" height="2.00" rx="1.1" fill="#7cf5b2"/><rect x="557.25" y="89.00" width="2.3" height="2.00" rx="1.1" fill="#7cf5b2"/><rect x="560.90" y="89.00" width="2.3" height="2.00" rx="1.1" fill="#7cf5b2"/><rect x="564.55" y="89.00" width="2.3" height="2.00" rx="1.1" fill="#7cf5b2"/><rect x="568.20" y="89.00" width="2.3" height="2.00" rx="1.1" fill="#7cf5b2"/><rect x="571.85" y="89.00" width="2.3" height="2.00" rx="1.1" fill="#7cf5b2"/><rect x="575.50" y="89.00" width="2.3" height="2.00" rx="1.1" fill="#7cf5b2"/><rect x="579.15" y="89.00" width="2.3" height="2.00" rx="1.1" fill="#7cf5b2"/><rect x="582.80" y="89.00" width="2.3" height="2.00" rx="1.1" fill="#7cf5b2"/><rect x="586.45" y="89.00" width="2.3" height="2.00" rx="1.1" fill="#7cf5b2"/><rect x="590.10" y="89.00" width="2.3" height="2.00" rx="1.1" fill="#7cf5b2"/><rect x="593.75" y="89.00" width="2.3" height="2.00" rx="1.1" fill="#7cf5b2"/><rect x="597.40" y="89.00" width="2.3" height="2.00" rx="1.1" fill="#7cf5b2"/><rect x="601.05" y="89.00" width="2.3" height="2.00" rx="1.1" fill="#7cf5b2"/><rect x="604.70" y="89.00" width="2.3" height="2.00" rx="1.1" fill="#7cf5b2"/><rect x="608.35" y="89.00" width="2.3" height="2.00" rx="1.1" fill="#7cf5b2"/></g>
</svg>
