<svg xmlns="http://www.w3.org/2000/svg" width="640" height="180" viewBox="0 0 640 180" role="img" aria-label="Click 7 waveform">
  <rect width="640" height="180" rx="18" fill="#10171d"/>
  <rect x="1" y="1" width="638" height="178" rx="17" fill="none" stroke="#2d3943" stroke-width="2"/>
  <text x="28" y="38" fill="#f6fbff" font-family="Inter, Arial, sans-serif" font-weight="850" font-size="24">Click 7</text>
  <text x="612" y="38" fill="#7cf5b2" text-anchor="end" font-family="Inter, Arial, sans-serif" font-weight="800" font-size="16">127 ms</text>
  <g opacity="0.96"><rect x="28.00" y="74.72" width="2.3" height="30.55" rx="1.1" fill="#7cf5b2"/><rect x="31.65" y="70.98" width="2.3" height="38.04" rx="1.1" fill="#7cf5b2"/><rect x="35.30" y="62.64" width="2.3" height="54.72" rx="1.1" fill="#7cf5b2"/><rect x="38.95" y="59.82" width="2.3" height="60.35" rx="1.1" fill="#7cf5b2"/><rect x="42.60" y="57.04" width="2.3" height="65.91" rx="1.1" fill="#7cf5b2"/><rect x="46.25" y="51.97" width="2.3" height="76.07" rx="1.1" fill="#7cf5b2"/><rect x="49.90" y="49.95" width="2.3" height="80.09" rx="1.1" fill="#7cf5b2"/><rect x="53.55" y="45.42" width="2.3" height="89.15" rx="1.1" fill="#7cf5b2"/><rect x="57.20" y="44.08" width="2.3" height="91.84" rx="1.1" fill="#7cf5b2"/><rect x="60.85" y="44.28" width="2.3" height="91.43" rx="1.1" fill="#7cf5b2"/><rect x="64.50" y="49.11" width="2.3" height="81.79" rx="1.1" fill="#7cf5b2"/><rect x="68.15" y="53.32" width="2.3" height="73.36" rx="1.1" fill="#7cf5b2"/><rect x="71.80" y="54.83" width="2.3" height="70.34" rx="1.1" fill="#7cf5b2"/><rect x="75.45" y="56.40" width="2.3" height="67.19" rx="1.1" fill="#7cf5b2"/><rect x="79.10" y="58.21" width="2.3" height="63.58" rx="1.1" fill="#7cf5b2"/><rect x="82.75" y="57.84" width="2.3" height="64.32" rx="1.1" fill="#7cf5b2"/><rect x="86.40" y="60.99" width="2.3" height="58.02" rx="1.1" fill="#7cf5b2"/><rect x="90.05" y="62.42" width="2.3" height="55.15" rx="1.1" fill="#7cf5b2"/><rect x="93.70" y="66.06" width="2.3" height="47.88" rx="1.1" fill="#7cf5b2"/><rect x="97.35" y="66.44" width="2.3" height="47.11" rx="1.1" fill="#7cf5b2"/><rect x="101.00" y="68.15" width="2.3" height="43.70" rx="1.1" fill="#7cf5b2"/><rect x="104.65" y="69.41" width="2.3" height="41.19" rx="1.1" fill="#7cf5b2"/><rect x="108.30" y="72.53" width="2.3" height="34.95" rx="1.1" fill="#7cf5b2"/><rect x="111.95" y="72.64" width="2.3" height="34.72" rx="1.1" fill="#7cf5b2"/><rect x="115.60" y="74.02" width="2.3" height="31.95" rx="1.1" fill="#7cf5b2"/><rect x="119.25" y="73.83" width="2.3" height="32.34" rx="1.1" fill="#7cf5b2"/><rect x="122.90" y="75.69" width="2.3" height="28.62" rx="1.1" fill="#7cf5b2"/><rect x="126.55" y="77.55" width="2.3" height="24.90" rx="1.1" fill="#7cf5b2"/><rect x="130.20" y="77.95" width="2.3" height="24.10" rx="1.1" fill="#7cf5b2"/><rect x="133.85" y="78.27" width="2.3" height="23.45" rx="1.1" fill="#7cf5b2"/><rect x="137.50" y="78.45" width="2.3" height="23.10" rx="1.1" fill="#7cf5b2"/><rect x="141.15" y="79.79" width="2.3" height="20.43" rx="1.1" fill="#7cf5b2"/><rect x="144.80" y="80.99" width="2.3" height="18.02" rx="1.1" fill="#7cf5b2"/><rect x="148.45" y="80.89" width="2.3" height="18.22" rx="1.1" fill="#7cf5b2"/><rect x="152.10" y="82.02" width="2.3" height="15.97" rx="1.1" fill="#7cf5b2"/><rect x="155.75" y="82.47" width="2.3" height="15.06" rx="1.1" fill="#7cf5b2"/><rect x="159.40" y="82.89" width="2.3" height="14.22" rx="1.1" fill="#7cf5b2"/><rect x="163.05" y="83.11" width="2.3" height="13.77" rx="1.1" fill="#7cf5b2"/><rect x="166.70" y="83.42" width="2.3" height="13.16" rx="1.1" fill="#7cf5b2"/><rect x="170.35" y="83.85" width="2.3" height="12.29" rx="1.1" fill="#7cf5b2"/><rect x="174.00" y="84.26" width="2.3" height="11.48" rx="1.1" fill="#7cf5b2"/><rect x="177.65" y="84.61" width="2.3" height="10.78" rx="1.1" fill="#7cf5b2"/><rect x="181.30" y="85.11" width="2.3" height="9.79" rx="1.1" fill="#7cf5b2"/><rect x="184.95" y="85.91" width="2.3" height="8.18" rx="1.1" fill="#7cf5b2"/><rect x="188.60" y="86.00" width="2.3" height="7.99" rx="1.1" fill="#7cf5b2"/><rect x="192.25" y="86.03" width="2.3" height="7.94" rx="1.1" fill="#7cf5b2"/><rect x="195.90" y="86.15" width="2.3" height="7.70" rx="1.1" fill="#7cf5b2"/><rect x="199.55" y="86.54" width="2.3" height="6.92" rx="1.1" fill="#7cf5b2"/><rect x="203.20" y="86.88" width="2.3" height="6.24" rx="1.1" fill="#7cf5b2"/><rect x="206.85" y="87.01" width="2.3" height="5.98" rx="1.1" fill="#7cf5b2"/><rect x="210.50" y="87.43" width="2.3" height="5.14" rx="1.1" fill="#7cf5b2"/><rect x="214.15" y="87.42" width="2.3" height="5.15" rx="1.1" fill="#7cf5b2"/><rect x="217.80" y="87.60" width="2.3" height="4.80" rx="1.1" fill="#7cf5b2"/><rect x="221.45" y="87.79" width="2.3" height="4.42" rx="1.1" fill="#7cf5b2"/><rect x="225.10" y="87.98" width="2.3" height="4.04" rx="1.1" fill="#7cf5b2"/><rect x="228.75" y="87.94" width="2.3" height="4.12" rx="1.1" fill="#7cf5b2"/><rect x="232.40" y="88.22" width="2.3" height="3.55" rx="1.1" fill="#7cf5b2"/><rect x="236.05" y="88.27" width="2.3" height="3.45" rx="1.1" fill="#7cf5b2"/><rect x="239.70" y="88.42" width="2.3" height="3.16" rx="1.1" fill="#7cf5b2"/><rect x="243.35" y="88.58" width="2.3" height="2.83" rx="1.1" fill="#7cf5b2"/><rect x="247.00" y="88.62" width="2.3" height="2.77" rx="1.1" fill="#7cf5b2"/><rect x="250.65" y="88.75" width="2.3" height="2.50" rx="1.1" fill="#7cf5b2"/><rect x="254.30" y="88.77" width="2.3" height="2.47" rx="1.1" fill="#7cf5b2"/><rect x="257.95" y="88.85" width="2.3" height="2.30" rx="1.1" fill="#7cf5b2"/><rect x="261.60" y="88.95" width="2.3" height="2.11" rx="1.1" fill="#7cf5b2"/><rect x="265.25" y="88.96" width="2.3" height="2.08" rx="1.1" fill="#7cf5b2"/><rect x="268.90" y="89.00" width="2.3" height="2.00" rx="1.1" fill="#7cf5b2"/><rect x="272.55" y="89.00" width="2.3" height="2.00" rx="1.1" fill="#7cf5b2"/><rect x="276.20" y="89.00" width="2.3" height="2.00" rx="1.1" fill="#7cf5b2"/><rect x="279.85" y="89.00" width="2.3" height="2.00" rx="1.1" fill="#7cf5b2"/><rect x="283.50" y="89.00" width="2.3" height="2.00" rx="1.1" fill="#7cf5b2"/><rect x="287.15" y="89.00" width="2.3" height="2.00" rx="1.1" fill="#7cf5b2"/><rect x="290.80" y="89.00" width="2.3" height="2.00" rx="1.1" fill="#7cf5b2"/><rect x="294.45" y="89.00" width="2.3" height="2.00" rx="1.1" fill="#7cf5b2"/><rect x="298.10" y="89.00" width="2.3" height="2.00" rx="1.1" fill="#7cf5b2"/><rect x="301.75" y="89.00" width="2.3" height="2.00" rx="1.1" fill="#7cf5b2"/><rect x="305.40" y="89.00" width="2.3" height="2.00" rx="1.1" fill="#7cf5b2"/><rect x="309.05" y="89.00" width="2.3" height="2.00" rx="1.1" fill="#7cf5b2"/><rect x="312.70" y="89.00" width="2.3" height="2.00" rx="1.1" fill="#7cf5b2"/><rect x="316.35" y="89.00" width="2.3" height="2.00" rx="1.1" fill="#7cf5b2"/><rect x="320.00" y="89.00" width="2.3" height="2.00" rx="1.1" fill="#7cf5b2"/><rect x="323.65" y="89.00" width="2.3" height="2.00" rx="1.1" fill="#7cf5b2"/><rect x="327.30" y="89.00" width="2.3" height="2.00" rx="1.1" fill="#7cf5b2"/><rect x="330.95" y="89.00" width="2.3" height="2.00" rx="1.1" fill="#7cf5b2"/><rect x="334.60" y="89.00" width="2.3" height="2.00" rx="1.1" fill="#7cf5b2"/><rect x="338.25" y="89.00" width="2.3" height="2.00" rx="1.1" fill="#7cf5b2"/><rect x="341.90" y="89.00" width="2.3" height="2.00" rx="1.1" fill="#7cf5b2"/><rect x="345.55" y="89.00" width="2.3" height="2.00" rx="1.1" fill="#7cf5b2"/><rect x="349.20" y="89.00" width="2.3" height="2.00" rx="1.1" fill="#7cf5b2"/><rect x="352.85" y="89.00" width="2.3" height="2.00" rx="1.1" fill="#7cf5b2"/><rect x="356.50" y="89.00" width="2.3" height="2.00" rx="1.1" fill="#7cf5b2"/><rect x="360.15" y="89.00" width="2.3" height="2.00" rx="1.1" fill="#7cf5b2"/><rect x="363.80" y="89.00" width="2.3" height="2.00" rx="1.1" fill="#7cf5b2"/><rect x="367.45" y="89.00" width="2.3" height="2.00" rx="1.1" fill="#7cf5b2"/><rect x="371.10" y="89.00" width="2.3" height="2.00" rx="1.1" fill="#7cf5b2"/><rect x="374.75" y="89.00" width="2.3" height="2.00" rx="1.1" fill="#7cf5b2"/><rect x="378.40" y="89.00" width="2.3" height="2.00" rx="1.1" fill="#7cf5b2"/><rect x="382.05" y="89.00" width="2.3" height="2.00" rx="1.1" fill="#7cf5b2"/><rect x="385.70" y="89.00" width="2.3" height="2.00" rx="1.1" fill="#7cf5b2"/><rect x="389.35" y="89.00" width="2.3" height="2.00" rx="1.1" fill="#7cf5b2"/><rect x="393.00" y="89.00" width="2.3" height="2.00" rx="1.1" fill="#7cf5b2"/><rect x="396.65" y="89.00" width="2.3" height="2.00" rx="1.1" fill="#7cf5b2"/><rect x="400.30" y="89.00" width="2.3" height="2.00" rx="1.1" fill="#7cf5b2"/><rect x="403.95" y="89.00" width="2.3" height="2.00" rx="1.1" fill="#7cf5b2"/><rect x="407.60" y="89.00" width="2.3" height="2.00" rx="1.1" fill="#7cf5b2"/><rect x="411.25" y="89.00" width="2.3" height="2.00" rx="1.1" fill="#7cf5b2"/><rect x="414.90" y="89.00" width="2.3" height="2.00" rx="1.1" fill="#7cf5b2"/><rect x="418.55" y="89.00" width="2.3" height="2.00" rx="1.1" fill="#7cf5b2"/><rect x="422.20" y="89.00" width="2.3" height="2.00" rx="1.1" fill="#7cf5b2"/><rect x="425.85" y="89.00" width="2.3" height="2.00" rx="1.1" fill="#7cf5b2"/><rect x="429.50" y="89.00" width="2.3" height="2.00" rx="1.1" fill="#7cf5b2"/><rect x="433.15" y="89.00" width="2.3" height="2.00" rx="1.1" fill="#7cf5b2"/><rect x="436.80" y="89.00" width="2.3" height="2.00" rx="1.1" fill="#7cf5b2"/><rect x="440.45" y="89.00" width="2.3" height="2.00" rx="1.1" fill="#7cf5b2"/><rect x="444.10" y="89.00" width="2.3" height="2.00" rx="1.1" fill="#7cf5b2"/><rect x="447.75" y="89.00" width="2.3" height="2.00" rx="1.1" fill="#7cf5b2"/><rect x="451.40" y="89.00" width="2.3" height="2.00" rx="1.1" fill="#7cf5b2"/><rect x="455.05" y="89.00" width="2.3" height="2.00" rx="1.1" fill="#7cf5b2"/><rect x="458.70" y="89.00" width="2.3" height="2.00" rx="1.1" fill="#7cf5b2"/><rect x="462.35" y="89.00" width="2.3" height="2.00" rx="1.1" fill="#7cf5b2"/><rect x="466.00" y="89.00" width="2.3" height="2.00" rx="1.1" fill="#7cf5b2"/><rect x="469.65" y="89.00" width="2.3" height="2.00" rx="1.1" fill="#7cf5b2"/><rect x="473.30" y="89.00" width="2.3" height="2.00" rx="1.1" fill="#7cf5b2"/><rect x="476.95" y="89.00" width="2.3" height="2.00" rx="1.1" fill="#7cf5b2"/><rect x="480.60" y="89.00" width="2.3" height="2.00" rx="1.1" fill="#7cf5b2"/><rect x="484.25" y="89.00" width="2.3" height="2.00" rx="1.1" fill="#7cf5b2"/><rect x="487.90" y="89.00" width="2.3" height="2.00" rx="1.1" fill="#7cf5b2"/><rect x="491.55" y="89.00" width="2.3" height="2.00" rx="1.1" fill="#7cf5b2"/><rect x="495.20" y="89.00" width="2.3" height="2.00" rx="1.1" fill="#7cf5b2"/><rect x="498.85" y="89.00" width="2.3" height="2.00" rx="1.1" fill="#7cf5b2"/><rect x="502.50" y="89.00" width="2.3" height="2.00" rx="1.1" fill="#7cf5b2"/><rect x="506.15" y="89.00" width="2.3" height="2.00" rx="1.1" fill="#7cf5b2"/><rect x="509.80" y="89.00" width="2.3" height="2.00" rx="1.1" fill="#7cf5b2"/><rect x="513.45" y="89.00" width="2.3" height="2.00" rx="1.1" fill="#7cf5b2"/><rect x="517.10" y="89.00" width="2.3" height="2.00" rx="1.1" fill="#7cf5b2"/><rect x="520.75" y="89.00" width="2.3" height="2.00" rx="1.1" fill="#7cf5b2"/><rect x="524.40" y="89.00" width="2.3" height="2.00" rx="1.1" fill="#7cf5b2"/><rect x="528.05" y="89.00" width="2.3" height="2.00" rx="1.1" fill="#7cf5b2"/><rect x="531.70" y="89.00" width="2.3" height="2.00" rx="1.1" fill="#7cf5b2"/><rect x="535.35" y="89.00" width="2.3" height="2.00" rx="1.1" fill="#7cf5b2"/><rect x="539.00" y="89.00" width="2.3" height="2.00" rx="1.1" fill="#7cf5b2"/><rect x="542.65" y="89.00" width="2.3" height="2.00" rx="1.1" fill="#7cf5b2"/><rect x="546.30" y="89.00" width="2.3" height="2.00" rx="1.1" fill="#7cf5b2"/><rect x="549.95" y="89.00" width="2.3" height="2.00" rx="1.1" fill="#7cf5b2"/><rect x="553.60" y="89.00" width="2.3" height="2.00" rx="1.1" fill="#7cf5b2"/><rect x="557.25" y="89.00" width="2.3" height="2.00" rx="1.1" fill="#7cf5b2"/><rect x="560.90" y="89.00" width="2.3" height="2.00" rx="1.1" fill="#7cf5b2"/><rect x="564.55" y="89.00" width="2.3" height="2.00" rx="1.1" fill="#7cf5b2"/><rect x="568.20" y="89.00" width="2.3" height="2.00" rx="1.1" fill="#7cf5b2"/><rect x="571.85" y="89.00" width="2.3" height="2.00" rx="1.1" fill="#7cf5b2"/><rect x="575.50" y="89.00" width="2.3" height="2.00" rx="1.1" fill="#7cf5b2"/><rect x="579.15" y="89.00" width="2.3" height="2.00" rx="1.1" fill="#7cf5b2"/><rect x="582.80" y="89.00" width="2.3" height="2.00" rx="1.1" fill="#7cf5b2"/><rect x="586.45" y="89.00" width="2.3" height="2.00" rx="1.1" fill="#7cf5b2"/><rect x="590.10" y="89.00" width="2.3" height="2.00" rx="1.1" fill="#7cf5b2"/><rect x="593.75" y="89.00" width="2.3" height="2.00" rx="1.1" fill="#7cf5b2"/><rect x="597.40" y="89.00" width="2.3" height="2.00" rx="1.1" fill="#7cf5b2"/><rect x="601.05" y="89.00" width="2.3" height="2.00" rx="1.1" fill="#7cf5b2"/><rect x="604.70" y="89.00" width="2.3" height="2.00" rx="1.1" fill="#7cf5b2"/><rect x="608.35" y="89.00" width="2.3" height="2.00" rx="1.1" fill="#7cf5b2"/></g>
</svg>
