<svg xmlns="http://www.w3.org/2000/svg" width="640" height="180" viewBox="0 0 640 180" role="img" aria-label="Error 6 waveform">
  <rect width="640" height="180" rx="18" fill="#10171d"/>
  <rect x="1" y="1" width="638" height="178" rx="17" fill="none" stroke="#2d3943" stroke-width="2"/>
  <text x="28" y="38" fill="#f6fbff" font-family="Inter, Arial, sans-serif" font-weight="850" font-size="24">Error 6</text>
  <text x="612" y="38" fill="#ff5d7d" text-anchor="end" font-family="Inter, Arial, sans-serif" font-weight="800" font-size="16">272 ms</text>
  <g opacity="0.96"><rect x="28.00" y="70.09" width="2.3" height="39.81" rx="1.1" fill="#ff5d7d"/><rect x="31.65" y="74.21" width="2.3" height="31.57" rx="1.1" fill="#ff5d7d"/><rect x="35.30" y="77.36" width="2.3" height="25.28" rx="1.1" fill="#ff5d7d"/><rect x="38.95" y="78.98" width="2.3" height="22.04" rx="1.1" fill="#ff5d7d"/><rect x="42.60" y="78.46" width="2.3" height="23.09" rx="1.1" fill="#ff5d7d"/><rect x="46.25" y="78.08" width="2.3" height="23.83" rx="1.1" fill="#ff5d7d"/><rect x="49.90" y="76.63" width="2.3" height="26.74" rx="1.1" fill="#ff5d7d"/><rect x="53.55" y="75.00" width="2.3" height="29.99" rx="1.1" fill="#ff5d7d"/><rect x="57.20" y="73.98" width="2.3" height="32.05" rx="1.1" fill="#ff5d7d"/><rect x="60.85" y="73.14" width="2.3" height="33.72" rx="1.1" fill="#ff5d7d"/><rect x="64.50" y="74.39" width="2.3" height="31.21" rx="1.1" fill="#ff5d7d"/><rect x="68.15" y="73.48" width="2.3" height="33.04" rx="1.1" fill="#ff5d7d"/><rect x="71.80" y="72.65" width="2.3" height="34.70" rx="1.1" fill="#ff5d7d"/><rect x="75.45" y="71.62" width="2.3" height="36.76" rx="1.1" fill="#ff5d7d"/><rect x="79.10" y="67.99" width="2.3" height="44.02" rx="1.1" fill="#ff5d7d"/><rect x="82.75" y="64.74" width="2.3" height="50.52" rx="1.1" fill="#ff5d7d"/><rect x="86.40" y="62.59" width="2.3" height="54.82" rx="1.1" fill="#ff5d7d"/><rect x="90.05" y="59.52" width="2.3" height="60.96" rx="1.1" fill="#ff5d7d"/><rect x="93.70" y="58.77" width="2.3" height="62.46" rx="1.1" fill="#ff5d7d"/><rect x="97.35" y="55.59" width="2.3" height="68.81" rx="1.1" fill="#ff5d7d"/><rect x="101.00" y="53.37" width="2.3" height="73.26" rx="1.1" fill="#ff5d7d"/><rect x="104.65" y="52.73" width="2.3" height="74.54" rx="1.1" fill="#ff5d7d"/><rect x="108.30" y="53.46" width="2.3" height="73.09" rx="1.1" fill="#ff5d7d"/><rect x="111.95" y="53.99" width="2.3" height="72.02" rx="1.1" fill="#ff5d7d"/><rect x="115.60" y="54.75" width="2.3" height="70.51" rx="1.1" fill="#ff5d7d"/><rect x="119.25" y="59.29" width="2.3" height="61.41" rx="1.1" fill="#ff5d7d"/><rect x="122.90" y="59.32" width="2.3" height="61.36" rx="1.1" fill="#ff5d7d"/><rect x="126.55" y="61.84" width="2.3" height="56.32" rx="1.1" fill="#ff5d7d"/><rect x="130.20" y="63.23" width="2.3" height="53.55" rx="1.1" fill="#ff5d7d"/><rect x="133.85" y="61.25" width="2.3" height="57.51" rx="1.1" fill="#ff5d7d"/><rect x="137.50" y="61.76" width="2.3" height="56.48" rx="1.1" fill="#ff5d7d"/><rect x="141.15" y="60.23" width="2.3" height="59.53" rx="1.1" fill="#ff5d7d"/><rect x="144.80" y="56.54" width="2.3" height="66.93" rx="1.1" fill="#ff5d7d"/><rect x="148.45" y="51.47" width="2.3" height="77.06" rx="1.1" fill="#ff5d7d"/><rect x="152.10" y="51.70" width="2.3" height="76.60" rx="1.1" fill="#ff5d7d"/><rect x="155.75" y="47.16" width="2.3" height="85.68" rx="1.1" fill="#ff5d7d"/><rect x="159.40" y="44.08" width="2.3" height="91.84" rx="1.1" fill="#ff5d7d"/><rect x="163.05" y="44.96" width="2.3" height="90.08" rx="1.1" fill="#ff5d7d"/><rect x="166.70" y="45.72" width="2.3" height="88.56" rx="1.1" fill="#ff5d7d"/><rect x="170.35" y="47.70" width="2.3" height="84.61" rx="1.1" fill="#ff5d7d"/><rect x="174.00" y="51.17" width="2.3" height="77.66" rx="1.1" fill="#ff5d7d"/><rect x="177.65" y="53.81" width="2.3" height="72.38" rx="1.1" fill="#ff5d7d"/><rect x="181.30" y="56.98" width="2.3" height="66.04" rx="1.1" fill="#ff5d7d"/><rect x="184.95" y="60.70" width="2.3" height="58.59" rx="1.1" fill="#ff5d7d"/><rect x="188.60" y="62.64" width="2.3" height="54.73" rx="1.1" fill="#ff5d7d"/><rect x="192.25" y="62.16" width="2.3" height="55.68" rx="1.1" fill="#ff5d7d"/><rect x="195.90" y="62.17" width="2.3" height="55.67" rx="1.1" fill="#ff5d7d"/><rect x="199.55" y="60.87" width="2.3" height="58.27" rx="1.1" fill="#ff5d7d"/><rect x="203.20" y="59.69" width="2.3" height="60.63" rx="1.1" fill="#ff5d7d"/><rect x="206.85" y="55.73" width="2.3" height="68.55" rx="1.1" fill="#ff5d7d"/><rect x="210.50" y="54.25" width="2.3" height="71.50" rx="1.1" fill="#ff5d7d"/><rect x="214.15" y="53.20" width="2.3" height="73.60" rx="1.1" fill="#ff5d7d"/><rect x="217.80" y="51.25" width="2.3" height="77.49" rx="1.1" fill="#ff5d7d"/><rect x="221.45" y="51.59" width="2.3" height="76.81" rx="1.1" fill="#ff5d7d"/><rect x="225.10" y="53.03" width="2.3" height="73.94" rx="1.1" fill="#ff5d7d"/><rect x="228.75" y="53.67" width="2.3" height="72.66" rx="1.1" fill="#ff5d7d"/><rect x="232.40" y="55.80" width="2.3" height="68.40" rx="1.1" fill="#ff5d7d"/><rect x="236.05" y="60.29" width="2.3" height="59.42" rx="1.1" fill="#ff5d7d"/><rect x="239.70" y="59.91" width="2.3" height="60.17" rx="1.1" fill="#ff5d7d"/><rect x="243.35" y="65.03" width="2.3" height="49.94" rx="1.1" fill="#ff5d7d"/><rect x="247.00" y="65.59" width="2.3" height="48.82" rx="1.1" fill="#ff5d7d"/><rect x="250.65" y="68.16" width="2.3" height="43.68" rx="1.1" fill="#ff5d7d"/><rect x="254.30" y="68.92" width="2.3" height="42.16" rx="1.1" fill="#ff5d7d"/><rect x="257.95" y="67.76" width="2.3" height="44.49" rx="1.1" fill="#ff5d7d"/><rect x="261.60" y="66.53" width="2.3" height="46.93" rx="1.1" fill="#ff5d7d"/><rect x="265.25" y="64.83" width="2.3" height="50.33" rx="1.1" fill="#ff5d7d"/><rect x="268.90" y="64.47" width="2.3" height="51.07" rx="1.1" fill="#ff5d7d"/><rect x="272.55" y="62.36" width="2.3" height="55.28" rx="1.1" fill="#ff5d7d"/><rect x="276.20" y="62.56" width="2.3" height="54.88" rx="1.1" fill="#ff5d7d"/><rect x="279.85" y="62.09" width="2.3" height="55.82" rx="1.1" fill="#ff5d7d"/><rect x="283.50" y="61.73" width="2.3" height="56.54" rx="1.1" fill="#ff5d7d"/><rect x="287.15" y="63.69" width="2.3" height="52.61" rx="1.1" fill="#ff5d7d"/><rect x="290.80" y="65.97" width="2.3" height="48.06" rx="1.1" fill="#ff5d7d"/><rect x="294.45" y="67.12" width="2.3" height="45.76" rx="1.1" fill="#ff5d7d"/><rect x="298.10" y="70.64" width="2.3" height="38.72" rx="1.1" fill="#ff5d7d"/><rect x="301.75" y="71.52" width="2.3" height="36.97" rx="1.1" fill="#ff5d7d"/><rect x="305.40" y="74.64" width="2.3" height="30.71" rx="1.1" fill="#ff5d7d"/><rect x="309.05" y="74.66" width="2.3" height="30.69" rx="1.1" fill="#ff5d7d"/><rect x="312.70" y="76.52" width="2.3" height="26.95" rx="1.1" fill="#ff5d7d"/><rect x="316.35" y="76.47" width="2.3" height="27.06" rx="1.1" fill="#ff5d7d"/><rect x="320.00" y="76.13" width="2.3" height="27.75" rx="1.1" fill="#ff5d7d"/><rect x="323.65" y="75.74" width="2.3" height="28.52" rx="1.1" fill="#ff5d7d"/><rect x="327.30" y="74.76" width="2.3" height="30.47" rx="1.1" fill="#ff5d7d"/><rect x="330.95" y="74.11" width="2.3" height="31.78" rx="1.1" fill="#ff5d7d"/><rect x="334.60" y="73.67" width="2.3" height="32.65" rx="1.1" fill="#ff5d7d"/><rect x="338.25" y="73.39" width="2.3" height="33.23" rx="1.1" fill="#ff5d7d"/><rect x="341.90" y="73.41" width="2.3" height="33.18" rx="1.1" fill="#ff5d7d"/><rect x="345.55" y="73.43" width="2.3" height="33.15" rx="1.1" fill="#ff5d7d"/><rect x="349.20" y="75.24" width="2.3" height="29.52" rx="1.1" fill="#ff5d7d"/><rect x="352.85" y="75.95" width="2.3" height="28.10" rx="1.1" fill="#ff5d7d"/><rect x="356.50" y="77.50" width="2.3" height="24.99" rx="1.1" fill="#ff5d7d"/><rect x="360.15" y="78.85" width="2.3" height="22.29" rx="1.1" fill="#ff5d7d"/><rect x="363.80" y="80.40" width="2.3" height="19.20" rx="1.1" fill="#ff5d7d"/><rect x="367.45" y="81.80" width="2.3" height="16.41" rx="1.1" fill="#ff5d7d"/><rect x="371.10" y="82.04" width="2.3" height="15.92" rx="1.1" fill="#ff5d7d"/><rect x="374.75" y="82.86" width="2.3" height="14.28" rx="1.1" fill="#ff5d7d"/><rect x="378.40" y="83.20" width="2.3" height="13.60" rx="1.1" fill="#ff5d7d"/><rect x="382.05" y="83.13" width="2.3" height="13.73" rx="1.1" fill="#ff5d7d"/><rect x="385.70" y="82.47" width="2.3" height="15.06" rx="1.1" fill="#ff5d7d"/><rect x="389.35" y="82.51" width="2.3" height="14.98" rx="1.1" fill="#ff5d7d"/><rect x="393.00" y="82.12" width="2.3" height="15.76" rx="1.1" fill="#ff5d7d"/><rect x="396.65" y="82.99" width="2.3" height="14.01" rx="1.1" fill="#ff5d7d"/><rect x="400.30" y="81.86" width="2.3" height="16.29" rx="1.1" fill="#ff5d7d"/><rect x="403.95" y="83.31" width="2.3" height="13.37" rx="1.1" fill="#ff5d7d"/><rect x="407.60" y="82.94" width="2.3" height="14.12" rx="1.1" fill="#ff5d7d"/><rect x="411.25" y="84.64" width="2.3" height="10.72" rx="1.1" fill="#ff5d7d"/><rect x="414.90" y="84.12" width="2.3" height="11.76" rx="1.1" fill="#ff5d7d"/><rect x="418.55" y="86.31" width="2.3" height="7.39" rx="1.1" fill="#ff5d7d"/><rect x="422.20" y="85.53" width="2.3" height="8.94" rx="1.1" fill="#ff5d7d"/><rect x="425.85" y="86.25" width="2.3" height="7.49" rx="1.1" fill="#ff5d7d"/><rect x="429.50" y="86.95" width="2.3" height="6.11" rx="1.1" fill="#ff5d7d"/><rect x="433.15" y="87.14" width="2.3" height="5.72" rx="1.1" fill="#ff5d7d"/><rect x="436.80" y="87.46" width="2.3" height="5.08" rx="1.1" fill="#ff5d7d"/><rect x="440.45" y="87.28" width="2.3" height="5.44" rx="1.1" fill="#ff5d7d"/><rect x="444.10" y="87.39" width="2.3" height="5.21" rx="1.1" fill="#ff5d7d"/><rect x="447.75" y="87.33" width="2.3" height="5.35" rx="1.1" fill="#ff5d7d"/><rect x="451.40" y="87.19" width="2.3" height="5.61" rx="1.1" fill="#ff5d7d"/><rect x="455.05" y="87.44" width="2.3" height="5.13" rx="1.1" fill="#ff5d7d"/><rect x="458.70" y="87.49" width="2.3" height="5.02" rx="1.1" fill="#ff5d7d"/><rect x="462.35" y="87.76" width="2.3" height="4.47" rx="1.1" fill="#ff5d7d"/><rect x="466.00" y="87.71" width="2.3" height="4.58" rx="1.1" fill="#ff5d7d"/><rect x="469.65" y="87.89" width="2.3" height="4.22" rx="1.1" fill="#ff5d7d"/><rect x="473.30" y="88.33" width="2.3" height="3.34" rx="1.1" fill="#ff5d7d"/><rect x="476.95" y="88.61" width="2.3" height="2.79" rx="1.1" fill="#ff5d7d"/><rect x="480.60" y="89.00" width="2.3" height="2.00" rx="1.1" fill="#ff5d7d"/><rect x="484.25" y="88.91" width="2.3" height="2.19" rx="1.1" fill="#ff5d7d"/><rect x="487.90" y="89.00" width="2.3" height="2.00" rx="1.1" fill="#ff5d7d"/><rect x="491.55" y="89.00" width="2.3" height="2.00" rx="1.1" fill="#ff5d7d"/><rect x="495.20" y="89.00" width="2.3" height="2.00" rx="1.1" fill="#ff5d7d"/><rect x="498.85" y="89.00" width="2.3" height="2.00" rx="1.1" fill="#ff5d7d"/><rect x="502.50" y="89.00" width="2.3" height="2.00" rx="1.1" fill="#ff5d7d"/><rect x="506.15" y="89.00" width="2.3" height="2.00" rx="1.1" fill="#ff5d7d"/><rect x="509.80" y="89.00" width="2.3" height="2.00" rx="1.1" fill="#ff5d7d"/><rect x="513.45" y="89.00" width="2.3" height="2.00" rx="1.1" fill="#ff5d7d"/><rect x="517.10" y="89.00" width="2.3" height="2.00" rx="1.1" fill="#ff5d7d"/><rect x="520.75" y="89.00" width="2.3" height="2.00" rx="1.1" fill="#ff5d7d"/><rect x="524.40" y="89.00" width="2.3" height="2.00" rx="1.1" fill="#ff5d7d"/><rect x="528.05" y="89.00" width="2.3" height="2.00" rx="1.1" fill="#ff5d7d"/><rect x="531.70" y="89.00" width="2.3" height="2.00" rx="1.1" fill="#ff5d7d"/><rect x="535.35" y="89.00" width="2.3" height="2.00" rx="1.1" fill="#ff5d7d"/><rect x="539.00" y="89.00" width="2.3" height="2.00" rx="1.1" fill="#ff5d7d"/><rect x="542.65" y="89.00" width="2.3" height="2.00" rx="1.1" fill="#ff5d7d"/><rect x="546.30" y="89.00" width="2.3" height="2.00" rx="1.1" fill="#ff5d7d"/><rect x="549.95" y="89.00" width="2.3" height="2.00" rx="1.1" fill="#ff5d7d"/><rect x="553.60" y="89.00" width="2.3" height="2.00" rx="1.1" fill="#ff5d7d"/><rect x="557.25" y="89.00" width="2.3" height="2.00" rx="1.1" fill="#ff5d7d"/><rect x="560.90" y="89.00" width="2.3" height="2.00" rx="1.1" fill="#ff5d7d"/><rect x="564.55" y="89.00" width="2.3" height="2.00" rx="1.1" fill="#ff5d7d"/><rect x="568.20" y="89.00" width="2.3" height="2.00" rx="1.1" fill="#ff5d7d"/><rect x="571.85" y="89.00" width="2.3" height="2.00" rx="1.1" fill="#ff5d7d"/><rect x="575.50" y="89.00" width="2.3" height="2.00" rx="1.1" fill="#ff5d7d"/><rect x="579.15" y="89.00" width="2.3" height="2.00" rx="1.1" fill="#ff5d7d"/><rect x="582.80" y="89.00" width="2.3" height="2.00" rx="1.1" fill="#ff5d7d"/><rect x="586.45" y="89.00" width="2.3" height="2.00" rx="1.1" fill="#ff5d7d"/><rect x="590.10" y="89.00" width="2.3" height="2.00" rx="1.1" fill="#ff5d7d"/><rect x="593.75" y="89.00" width="2.3" height="2.00" rx="1.1" fill="#ff5d7d"/><rect x="597.40" y="89.00" width="2.3" height="2.00" rx="1.1" fill="#ff5d7d"/><rect x="601.05" y="89.00" width="2.3" height="2.00" rx="1.1" fill="#ff5d7d"/><rect x="604.70" y="89.00" width="2.3" height="2.00" rx="1.1" fill="#ff5d7d"/><rect x="608.35" y="89.00" width="2.3" height="2.00" rx="1.1" fill="#ff5d7d"/></g>
</svg>
