<svg xmlns="http://www.w3.org/2000/svg" width="640" height="180" viewBox="0 0 640 180" role="img" aria-label="Error 5 waveform">
  <rect width="640" height="180" rx="18" fill="#10171d"/>
  <rect x="1" y="1" width="638" height="178" rx="17" fill="none" stroke="#2d3943" stroke-width="2"/>
  <text x="28" y="38" fill="#f6fbff" font-family="Inter, Arial, sans-serif" font-weight="850" font-size="24">Error 5</text>
  <text x="612" y="38" fill="#ff5d7d" text-anchor="end" font-family="Inter, Arial, sans-serif" font-weight="800" font-size="16">260 ms</text>
  <g opacity="0.96"><rect x="28.00" y="68.99" width="2.3" height="42.02" rx="1.1" fill="#ff5d7d"/><rect x="31.65" y="74.91" width="2.3" height="30.18" rx="1.1" fill="#ff5d7d"/><rect x="35.30" y="78.88" width="2.3" height="22.23" rx="1.1" fill="#ff5d7d"/><rect x="38.95" y="78.68" width="2.3" height="22.65" rx="1.1" fill="#ff5d7d"/><rect x="42.60" y="78.52" width="2.3" height="22.97" rx="1.1" fill="#ff5d7d"/><rect x="46.25" y="77.25" width="2.3" height="25.50" rx="1.1" fill="#ff5d7d"/><rect x="49.90" y="75.03" width="2.3" height="29.93" rx="1.1" fill="#ff5d7d"/><rect x="53.55" y="75.42" width="2.3" height="29.16" rx="1.1" fill="#ff5d7d"/><rect x="57.20" y="73.57" width="2.3" height="32.86" rx="1.1" fill="#ff5d7d"/><rect x="60.85" y="71.50" width="2.3" height="37.01" rx="1.1" fill="#ff5d7d"/><rect x="64.50" y="72.12" width="2.3" height="35.77" rx="1.1" fill="#ff5d7d"/><rect x="68.15" y="71.90" width="2.3" height="36.21" rx="1.1" fill="#ff5d7d"/><rect x="71.80" y="71.63" width="2.3" height="36.74" rx="1.1" fill="#ff5d7d"/><rect x="75.45" y="70.22" width="2.3" height="39.57" rx="1.1" fill="#ff5d7d"/><rect x="79.10" y="69.56" width="2.3" height="40.88" rx="1.1" fill="#ff5d7d"/><rect x="82.75" y="67.43" width="2.3" height="45.15" rx="1.1" fill="#ff5d7d"/><rect x="86.40" y="64.94" width="2.3" height="50.13" rx="1.1" fill="#ff5d7d"/><rect x="90.05" y="61.49" width="2.3" height="57.01" rx="1.1" fill="#ff5d7d"/><rect x="93.70" y="60.44" width="2.3" height="59.12" rx="1.1" fill="#ff5d7d"/><rect x="97.35" y="53.55" width="2.3" height="72.90" rx="1.1" fill="#ff5d7d"/><rect x="101.00" y="50.69" width="2.3" height="78.62" rx="1.1" fill="#ff5d7d"/><rect x="104.65" y="51.52" width="2.3" height="76.96" rx="1.1" fill="#ff5d7d"/><rect x="108.30" y="51.12" width="2.3" height="77.77" rx="1.1" fill="#ff5d7d"/><rect x="111.95" y="50.58" width="2.3" height="78.84" rx="1.1" fill="#ff5d7d"/><rect x="115.60" y="51.81" width="2.3" height="76.38" rx="1.1" fill="#ff5d7d"/><rect x="119.25" y="53.92" width="2.3" height="72.17" rx="1.1" fill="#ff5d7d"/><rect x="122.90" y="55.36" width="2.3" height="69.29" rx="1.1" fill="#ff5d7d"/><rect x="126.55" y="58.87" width="2.3" height="62.26" rx="1.1" fill="#ff5d7d"/><rect x="130.20" y="60.21" width="2.3" height="59.58" rx="1.1" fill="#ff5d7d"/><rect x="133.85" y="61.37" width="2.3" height="57.26" rx="1.1" fill="#ff5d7d"/><rect x="137.50" y="61.99" width="2.3" height="56.01" rx="1.1" fill="#ff5d7d"/><rect x="141.15" y="60.00" width="2.3" height="60.00" rx="1.1" fill="#ff5d7d"/><rect x="144.80" y="58.55" width="2.3" height="62.89" rx="1.1" fill="#ff5d7d"/><rect x="148.45" y="55.86" width="2.3" height="68.27" rx="1.1" fill="#ff5d7d"/><rect x="152.10" y="55.09" width="2.3" height="69.81" rx="1.1" fill="#ff5d7d"/><rect x="155.75" y="47.43" width="2.3" height="85.14" rx="1.1" fill="#ff5d7d"/><rect x="159.40" y="47.28" width="2.3" height="85.45" rx="1.1" fill="#ff5d7d"/><rect x="163.05" y="46.41" width="2.3" height="87.18" rx="1.1" fill="#ff5d7d"/><rect x="166.70" y="45.58" width="2.3" height="88.85" rx="1.1" fill="#ff5d7d"/><rect x="170.35" y="44.08" width="2.3" height="91.84" rx="1.1" fill="#ff5d7d"/><rect x="174.00" y="45.84" width="2.3" height="88.31" rx="1.1" fill="#ff5d7d"/><rect x="177.65" y="46.37" width="2.3" height="87.26" rx="1.1" fill="#ff5d7d"/><rect x="181.30" y="51.84" width="2.3" height="76.31" rx="1.1" fill="#ff5d7d"/><rect x="184.95" y="54.94" width="2.3" height="70.11" rx="1.1" fill="#ff5d7d"/><rect x="188.60" y="58.21" width="2.3" height="63.58" rx="1.1" fill="#ff5d7d"/><rect x="192.25" y="60.23" width="2.3" height="59.54" rx="1.1" fill="#ff5d7d"/><rect x="195.90" y="60.91" width="2.3" height="58.18" rx="1.1" fill="#ff5d7d"/><rect x="199.55" y="63.13" width="2.3" height="53.73" rx="1.1" fill="#ff5d7d"/><rect x="203.20" y="61.58" width="2.3" height="56.84" rx="1.1" fill="#ff5d7d"/><rect x="206.85" y="60.28" width="2.3" height="59.44" rx="1.1" fill="#ff5d7d"/><rect x="210.50" y="59.21" width="2.3" height="61.57" rx="1.1" fill="#ff5d7d"/><rect x="214.15" y="55.61" width="2.3" height="68.77" rx="1.1" fill="#ff5d7d"/><rect x="217.80" y="52.59" width="2.3" height="74.82" rx="1.1" fill="#ff5d7d"/><rect x="221.45" y="54.23" width="2.3" height="71.54" rx="1.1" fill="#ff5d7d"/><rect x="225.10" y="50.50" width="2.3" height="79.01" rx="1.1" fill="#ff5d7d"/><rect x="228.75" y="52.47" width="2.3" height="75.07" rx="1.1" fill="#ff5d7d"/><rect x="232.40" y="50.08" width="2.3" height="79.84" rx="1.1" fill="#ff5d7d"/><rect x="236.05" y="52.85" width="2.3" height="74.30" rx="1.1" fill="#ff5d7d"/><rect x="239.70" y="55.06" width="2.3" height="69.89" rx="1.1" fill="#ff5d7d"/><rect x="243.35" y="60.06" width="2.3" height="59.89" rx="1.1" fill="#ff5d7d"/><rect x="247.00" y="59.01" width="2.3" height="61.99" rx="1.1" fill="#ff5d7d"/><rect x="250.65" y="63.47" width="2.3" height="53.07" rx="1.1" fill="#ff5d7d"/><rect x="254.30" y="67.24" width="2.3" height="45.53" rx="1.1" fill="#ff5d7d"/><rect x="257.95" y="68.63" width="2.3" height="42.74" rx="1.1" fill="#ff5d7d"/><rect x="261.60" y="68.63" width="2.3" height="42.73" rx="1.1" fill="#ff5d7d"/><rect x="265.25" y="71.12" width="2.3" height="37.77" rx="1.1" fill="#ff5d7d"/><rect x="268.90" y="68.33" width="2.3" height="43.35" rx="1.1" fill="#ff5d7d"/><rect x="272.55" y="69.50" width="2.3" height="41.00" rx="1.1" fill="#ff5d7d"/><rect x="276.20" y="65.88" width="2.3" height="48.24" rx="1.1" fill="#ff5d7d"/><rect x="279.85" y="65.12" width="2.3" height="49.76" rx="1.1" fill="#ff5d7d"/><rect x="283.50" y="64.72" width="2.3" height="50.55" rx="1.1" fill="#ff5d7d"/><rect x="287.15" y="63.13" width="2.3" height="53.74" rx="1.1" fill="#ff5d7d"/><rect x="290.80" y="62.92" width="2.3" height="54.16" rx="1.1" fill="#ff5d7d"/><rect x="294.45" y="64.46" width="2.3" height="51.08" rx="1.1" fill="#ff5d7d"/><rect x="298.10" y="65.59" width="2.3" height="48.81" rx="1.1" fill="#ff5d7d"/><rect x="301.75" y="66.09" width="2.3" height="47.82" rx="1.1" fill="#ff5d7d"/><rect x="305.40" y="69.19" width="2.3" height="41.62" rx="1.1" fill="#ff5d7d"/><rect x="309.05" y="71.51" width="2.3" height="36.99" rx="1.1" fill="#ff5d7d"/><rect x="312.70" y="73.08" width="2.3" height="33.83" rx="1.1" fill="#ff5d7d"/><rect x="316.35" y="74.73" width="2.3" height="30.53" rx="1.1" fill="#ff5d7d"/><rect x="320.00" y="76.86" width="2.3" height="26.27" rx="1.1" fill="#ff5d7d"/><rect x="323.65" y="76.24" width="2.3" height="27.51" rx="1.1" fill="#ff5d7d"/><rect x="327.30" y="78.14" width="2.3" height="23.71" rx="1.1" fill="#ff5d7d"/><rect x="330.95" y="77.72" width="2.3" height="24.56" rx="1.1" fill="#ff5d7d"/><rect x="334.60" y="77.28" width="2.3" height="25.45" rx="1.1" fill="#ff5d7d"/><rect x="338.25" y="76.92" width="2.3" height="26.16" rx="1.1" fill="#ff5d7d"/><rect x="341.90" y="76.08" width="2.3" height="27.84" rx="1.1" fill="#ff5d7d"/><rect x="345.55" y="75.50" width="2.3" height="29.00" rx="1.1" fill="#ff5d7d"/><rect x="349.20" y="74.57" width="2.3" height="30.86" rx="1.1" fill="#ff5d7d"/><rect x="352.85" y="75.56" width="2.3" height="28.88" rx="1.1" fill="#ff5d7d"/><rect x="356.50" y="75.72" width="2.3" height="28.55" rx="1.1" fill="#ff5d7d"/><rect x="360.15" y="76.77" width="2.3" height="26.46" rx="1.1" fill="#ff5d7d"/><rect x="363.80" y="77.54" width="2.3" height="24.92" rx="1.1" fill="#ff5d7d"/><rect x="367.45" y="78.91" width="2.3" height="22.19" rx="1.1" fill="#ff5d7d"/><rect x="371.10" y="80.21" width="2.3" height="19.58" rx="1.1" fill="#ff5d7d"/><rect x="374.75" y="81.69" width="2.3" height="16.62" rx="1.1" fill="#ff5d7d"/><rect x="378.40" y="81.96" width="2.3" height="16.07" rx="1.1" fill="#ff5d7d"/><rect x="382.05" y="83.32" width="2.3" height="13.36" rx="1.1" fill="#ff5d7d"/><rect x="385.70" y="83.52" width="2.3" height="12.97" rx="1.1" fill="#ff5d7d"/><rect x="389.35" y="83.82" width="2.3" height="12.36" rx="1.1" fill="#ff5d7d"/><rect x="393.00" y="84.44" width="2.3" height="11.12" rx="1.1" fill="#ff5d7d"/><rect x="396.65" y="84.13" width="2.3" height="11.73" rx="1.1" fill="#ff5d7d"/><rect x="400.30" y="84.22" width="2.3" height="11.55" rx="1.1" fill="#ff5d7d"/><rect x="403.95" y="83.92" width="2.3" height="12.15" rx="1.1" fill="#ff5d7d"/><rect x="407.60" y="83.87" width="2.3" height="12.26" rx="1.1" fill="#ff5d7d"/><rect x="411.25" y="83.96" width="2.3" height="12.07" rx="1.1" fill="#ff5d7d"/><rect x="414.90" y="84.05" width="2.3" height="11.90" rx="1.1" fill="#ff5d7d"/><rect x="418.55" y="84.16" width="2.3" height="11.68" rx="1.1" fill="#ff5d7d"/><rect x="422.20" y="85.05" width="2.3" height="9.90" rx="1.1" fill="#ff5d7d"/><rect x="425.85" y="85.10" width="2.3" height="9.80" rx="1.1" fill="#ff5d7d"/><rect x="429.50" y="85.63" width="2.3" height="8.74" rx="1.1" fill="#ff5d7d"/><rect x="433.15" y="86.64" width="2.3" height="6.71" rx="1.1" fill="#ff5d7d"/><rect x="436.80" y="86.34" width="2.3" height="7.31" rx="1.1" fill="#ff5d7d"/><rect x="440.45" y="86.95" width="2.3" height="6.11" rx="1.1" fill="#ff5d7d"/><rect x="444.10" y="87.56" width="2.3" height="4.88" rx="1.1" fill="#ff5d7d"/><rect x="447.75" y="87.84" width="2.3" height="4.32" rx="1.1" fill="#ff5d7d"/><rect x="451.40" y="88.45" width="2.3" height="3.09" rx="1.1" fill="#ff5d7d"/><rect x="455.05" y="88.09" width="2.3" height="3.83" rx="1.1" fill="#ff5d7d"/><rect x="458.70" y="88.12" width="2.3" height="3.76" rx="1.1" fill="#ff5d7d"/><rect x="462.35" y="88.14" width="2.3" height="3.73" rx="1.1" fill="#ff5d7d"/><rect x="466.00" y="88.15" width="2.3" height="3.69" rx="1.1" fill="#ff5d7d"/><rect x="469.65" y="88.24" width="2.3" height="3.51" rx="1.1" fill="#ff5d7d"/><rect x="473.30" y="88.25" width="2.3" height="3.51" rx="1.1" fill="#ff5d7d"/><rect x="476.95" y="88.32" width="2.3" height="3.36" rx="1.1" fill="#ff5d7d"/><rect x="480.60" y="88.84" width="2.3" height="2.33" rx="1.1" fill="#ff5d7d"/><rect x="484.25" y="88.54" width="2.3" height="2.91" rx="1.1" fill="#ff5d7d"/><rect x="487.90" y="88.71" width="2.3" height="2.59" rx="1.1" fill="#ff5d7d"/><rect x="491.55" y="89.00" width="2.3" height="2.00" rx="1.1" fill="#ff5d7d"/><rect x="495.20" y="89.00" width="2.3" height="2.00" rx="1.1" fill="#ff5d7d"/><rect x="498.85" y="89.00" width="2.3" height="2.00" rx="1.1" fill="#ff5d7d"/><rect x="502.50" y="89.00" width="2.3" height="2.00" rx="1.1" fill="#ff5d7d"/><rect x="506.15" y="89.00" width="2.3" height="2.00" rx="1.1" fill="#ff5d7d"/><rect x="509.80" y="89.00" width="2.3" height="2.00" rx="1.1" fill="#ff5d7d"/><rect x="513.45" y="89.00" width="2.3" height="2.00" rx="1.1" fill="#ff5d7d"/><rect x="517.10" y="89.00" width="2.3" height="2.00" rx="1.1" fill="#ff5d7d"/><rect x="520.75" y="89.00" width="2.3" height="2.00" rx="1.1" fill="#ff5d7d"/><rect x="524.40" y="89.00" width="2.3" height="2.00" rx="1.1" fill="#ff5d7d"/><rect x="528.05" y="89.00" width="2.3" height="2.00" rx="1.1" fill="#ff5d7d"/><rect x="531.70" y="89.00" width="2.3" height="2.00" rx="1.1" fill="#ff5d7d"/><rect x="535.35" y="89.00" width="2.3" height="2.00" rx="1.1" fill="#ff5d7d"/><rect x="539.00" y="89.00" width="2.3" height="2.00" rx="1.1" fill="#ff5d7d"/><rect x="542.65" y="89.00" width="2.3" height="2.00" rx="1.1" fill="#ff5d7d"/><rect x="546.30" y="89.00" width="2.3" height="2.00" rx="1.1" fill="#ff5d7d"/><rect x="549.95" y="89.00" width="2.3" height="2.00" rx="1.1" fill="#ff5d7d"/><rect x="553.60" y="89.00" width="2.3" height="2.00" rx="1.1" fill="#ff5d7d"/><rect x="557.25" y="89.00" width="2.3" height="2.00" rx="1.1" fill="#ff5d7d"/><rect x="560.90" y="89.00" width="2.3" height="2.00" rx="1.1" fill="#ff5d7d"/><rect x="564.55" y="89.00" width="2.3" height="2.00" rx="1.1" fill="#ff5d7d"/><rect x="568.20" y="89.00" width="2.3" height="2.00" rx="1.1" fill="#ff5d7d"/><rect x="571.85" y="89.00" width="2.3" height="2.00" rx="1.1" fill="#ff5d7d"/><rect x="575.50" y="89.00" width="2.3" height="2.00" rx="1.1" fill="#ff5d7d"/><rect x="579.15" y="89.00" width="2.3" height="2.00" rx="1.1" fill="#ff5d7d"/><rect x="582.80" y="89.00" width="2.3" height="2.00" rx="1.1" fill="#ff5d7d"/><rect x="586.45" y="89.00" width="2.3" height="2.00" rx="1.1" fill="#ff5d7d"/><rect x="590.10" y="89.00" width="2.3" height="2.00" rx="1.1" fill="#ff5d7d"/><rect x="593.75" y="89.00" width="2.3" height="2.00" rx="1.1" fill="#ff5d7d"/><rect x="597.40" y="89.00" width="2.3" height="2.00" rx="1.1" fill="#ff5d7d"/><rect x="601.05" y="89.00" width="2.3" height="2.00" rx="1.1" fill="#ff5d7d"/><rect x="604.70" y="89.00" width="2.3" height="2.00" rx="1.1" fill="#ff5d7d"/><rect x="608.35" y="89.00" width="2.3" height="2.00" rx="1.1" fill="#ff5d7d"/></g>
</svg>
