<svg xmlns="http://www.w3.org/2000/svg" width="640" height="180" viewBox="0 0 640 180" role="img" aria-label="Error 2 waveform">
  <rect width="640" height="180" rx="18" fill="#10171d"/>
  <rect x="1" y="1" width="638" height="178" rx="17" fill="none" stroke="#2d3943" stroke-width="2"/>
  <text x="28" y="38" fill="#f6fbff" font-family="Inter, Arial, sans-serif" font-weight="850" font-size="24">Error 2</text>
  <text x="612" y="38" fill="#ff5d7d" text-anchor="end" font-family="Inter, Arial, sans-serif" font-weight="800" font-size="16">224 ms</text>
  <g opacity="0.96"><rect x="28.00" y="69.19" width="2.3" height="41.62" rx="1.1" fill="#ff5d7d"/><rect x="31.65" y="74.73" width="2.3" height="30.54" rx="1.1" fill="#ff5d7d"/><rect x="35.30" y="77.56" width="2.3" height="24.87" rx="1.1" fill="#ff5d7d"/><rect x="38.95" y="80.71" width="2.3" height="18.58" rx="1.1" fill="#ff5d7d"/><rect x="42.60" y="78.80" width="2.3" height="22.39" rx="1.1" fill="#ff5d7d"/><rect x="46.25" y="77.17" width="2.3" height="25.66" rx="1.1" fill="#ff5d7d"/><rect x="49.90" y="74.97" width="2.3" height="30.06" rx="1.1" fill="#ff5d7d"/><rect x="53.55" y="72.29" width="2.3" height="35.43" rx="1.1" fill="#ff5d7d"/><rect x="57.20" y="74.87" width="2.3" height="30.27" rx="1.1" fill="#ff5d7d"/><rect x="60.85" y="69.26" width="2.3" height="41.49" rx="1.1" fill="#ff5d7d"/><rect x="64.50" y="70.12" width="2.3" height="39.77" rx="1.1" fill="#ff5d7d"/><rect x="68.15" y="69.91" width="2.3" height="40.17" rx="1.1" fill="#ff5d7d"/><rect x="71.80" y="68.89" width="2.3" height="42.22" rx="1.1" fill="#ff5d7d"/><rect x="75.45" y="74.20" width="2.3" height="31.60" rx="1.1" fill="#ff5d7d"/><rect x="79.10" y="69.73" width="2.3" height="40.54" rx="1.1" fill="#ff5d7d"/><rect x="82.75" y="69.30" width="2.3" height="41.39" rx="1.1" fill="#ff5d7d"/><rect x="86.40" y="66.45" width="2.3" height="47.10" rx="1.1" fill="#ff5d7d"/><rect x="90.05" y="65.91" width="2.3" height="48.18" rx="1.1" fill="#ff5d7d"/><rect x="93.70" y="63.40" width="2.3" height="53.21" rx="1.1" fill="#ff5d7d"/><rect x="97.35" y="58.67" width="2.3" height="62.66" rx="1.1" fill="#ff5d7d"/><rect x="101.00" y="58.13" width="2.3" height="63.74" rx="1.1" fill="#ff5d7d"/><rect x="104.65" y="55.48" width="2.3" height="69.04" rx="1.1" fill="#ff5d7d"/><rect x="108.30" y="49.80" width="2.3" height="80.39" rx="1.1" fill="#ff5d7d"/><rect x="111.95" y="47.90" width="2.3" height="84.21" rx="1.1" fill="#ff5d7d"/><rect x="115.60" y="47.62" width="2.3" height="84.75" rx="1.1" fill="#ff5d7d"/><rect x="119.25" y="48.06" width="2.3" height="83.87" rx="1.1" fill="#ff5d7d"/><rect x="122.90" y="46.34" width="2.3" height="87.32" rx="1.1" fill="#ff5d7d"/><rect x="126.55" y="48.52" width="2.3" height="82.95" rx="1.1" fill="#ff5d7d"/><rect x="130.20" y="50.23" width="2.3" height="79.53" rx="1.1" fill="#ff5d7d"/><rect x="133.85" y="52.13" width="2.3" height="75.74" rx="1.1" fill="#ff5d7d"/><rect x="137.50" y="61.47" width="2.3" height="57.06" rx="1.1" fill="#ff5d7d"/><rect x="141.15" y="55.32" width="2.3" height="69.36" rx="1.1" fill="#ff5d7d"/><rect x="144.80" y="57.18" width="2.3" height="65.63" rx="1.1" fill="#ff5d7d"/><rect x="148.45" y="58.05" width="2.3" height="63.91" rx="1.1" fill="#ff5d7d"/><rect x="152.10" y="60.42" width="2.3" height="59.15" rx="1.1" fill="#ff5d7d"/><rect x="155.75" y="60.55" width="2.3" height="58.90" rx="1.1" fill="#ff5d7d"/><rect x="159.40" y="59.83" width="2.3" height="60.33" rx="1.1" fill="#ff5d7d"/><rect x="163.05" y="59.72" width="2.3" height="60.56" rx="1.1" fill="#ff5d7d"/><rect x="166.70" y="56.41" width="2.3" height="67.18" rx="1.1" fill="#ff5d7d"/><rect x="170.35" y="54.55" width="2.3" height="70.89" rx="1.1" fill="#ff5d7d"/><rect x="174.00" y="50.94" width="2.3" height="78.12" rx="1.1" fill="#ff5d7d"/><rect x="177.65" y="47.49" width="2.3" height="85.02" rx="1.1" fill="#ff5d7d"/><rect x="181.30" y="49.21" width="2.3" height="81.57" rx="1.1" fill="#ff5d7d"/><rect x="184.95" y="44.08" width="2.3" height="91.84" rx="1.1" fill="#ff5d7d"/><rect x="188.60" y="46.07" width="2.3" height="87.86" rx="1.1" fill="#ff5d7d"/><rect x="192.25" y="47.10" width="2.3" height="85.81" rx="1.1" fill="#ff5d7d"/><rect x="195.90" y="46.37" width="2.3" height="87.26" rx="1.1" fill="#ff5d7d"/><rect x="199.55" y="52.60" width="2.3" height="74.81" rx="1.1" fill="#ff5d7d"/><rect x="203.20" y="49.33" width="2.3" height="81.34" rx="1.1" fill="#ff5d7d"/><rect x="206.85" y="52.31" width="2.3" height="75.38" rx="1.1" fill="#ff5d7d"/><rect x="210.50" y="55.45" width="2.3" height="69.09" rx="1.1" fill="#ff5d7d"/><rect x="214.15" y="57.73" width="2.3" height="64.55" rx="1.1" fill="#ff5d7d"/><rect x="217.80" y="65.78" width="2.3" height="48.43" rx="1.1" fill="#ff5d7d"/><rect x="221.45" y="62.46" width="2.3" height="55.08" rx="1.1" fill="#ff5d7d"/><rect x="225.10" y="63.78" width="2.3" height="52.43" rx="1.1" fill="#ff5d7d"/><rect x="228.75" y="63.08" width="2.3" height="53.84" rx="1.1" fill="#ff5d7d"/><rect x="232.40" y="64.34" width="2.3" height="51.32" rx="1.1" fill="#ff5d7d"/><rect x="236.05" y="65.39" width="2.3" height="49.23" rx="1.1" fill="#ff5d7d"/><rect x="239.70" y="61.96" width="2.3" height="56.08" rx="1.1" fill="#ff5d7d"/><rect x="243.35" y="60.79" width="2.3" height="58.41" rx="1.1" fill="#ff5d7d"/><rect x="247.00" y="58.38" width="2.3" height="63.24" rx="1.1" fill="#ff5d7d"/><rect x="250.65" y="57.68" width="2.3" height="64.65" rx="1.1" fill="#ff5d7d"/><rect x="254.30" y="65.42" width="2.3" height="49.15" rx="1.1" fill="#ff5d7d"/><rect x="257.95" y="55.17" width="2.3" height="69.66" rx="1.1" fill="#ff5d7d"/><rect x="261.60" y="56.35" width="2.3" height="67.31" rx="1.1" fill="#ff5d7d"/><rect x="265.25" y="62.97" width="2.3" height="54.06" rx="1.1" fill="#ff5d7d"/><rect x="268.90" y="56.55" width="2.3" height="66.90" rx="1.1" fill="#ff5d7d"/><rect x="272.55" y="58.45" width="2.3" height="63.10" rx="1.1" fill="#ff5d7d"/><rect x="276.20" y="66.49" width="2.3" height="47.02" rx="1.1" fill="#ff5d7d"/><rect x="279.85" y="62.21" width="2.3" height="55.58" rx="1.1" fill="#ff5d7d"/><rect x="283.50" y="66.26" width="2.3" height="47.47" rx="1.1" fill="#ff5d7d"/><rect x="287.15" y="70.68" width="2.3" height="38.64" rx="1.1" fill="#ff5d7d"/><rect x="290.80" y="68.78" width="2.3" height="42.43" rx="1.1" fill="#ff5d7d"/><rect x="294.45" y="70.74" width="2.3" height="38.53" rx="1.1" fill="#ff5d7d"/><rect x="298.10" y="73.97" width="2.3" height="32.07" rx="1.1" fill="#ff5d7d"/><rect x="301.75" y="73.36" width="2.3" height="33.27" rx="1.1" fill="#ff5d7d"/><rect x="305.40" y="73.56" width="2.3" height="32.88" rx="1.1" fill="#ff5d7d"/><rect x="309.05" y="73.69" width="2.3" height="32.62" rx="1.1" fill="#ff5d7d"/><rect x="312.70" y="73.34" width="2.3" height="33.32" rx="1.1" fill="#ff5d7d"/><rect x="316.35" y="72.53" width="2.3" height="34.94" rx="1.1" fill="#ff5d7d"/><rect x="320.00" y="71.91" width="2.3" height="36.19" rx="1.1" fill="#ff5d7d"/><rect x="323.65" y="72.16" width="2.3" height="35.68" rx="1.1" fill="#ff5d7d"/><rect x="327.30" y="70.82" width="2.3" height="38.37" rx="1.1" fill="#ff5d7d"/><rect x="330.95" y="71.25" width="2.3" height="37.50" rx="1.1" fill="#ff5d7d"/><rect x="334.60" y="71.82" width="2.3" height="36.36" rx="1.1" fill="#ff5d7d"/><rect x="338.25" y="72.12" width="2.3" height="35.76" rx="1.1" fill="#ff5d7d"/><rect x="341.90" y="73.89" width="2.3" height="32.21" rx="1.1" fill="#ff5d7d"/><rect x="345.55" y="75.14" width="2.3" height="29.73" rx="1.1" fill="#ff5d7d"/><rect x="349.20" y="74.62" width="2.3" height="30.76" rx="1.1" fill="#ff5d7d"/><rect x="352.85" y="76.45" width="2.3" height="27.09" rx="1.1" fill="#ff5d7d"/><rect x="356.50" y="77.84" width="2.3" height="24.32" rx="1.1" fill="#ff5d7d"/><rect x="360.15" y="79.59" width="2.3" height="20.82" rx="1.1" fill="#ff5d7d"/><rect x="363.80" y="80.73" width="2.3" height="18.53" rx="1.1" fill="#ff5d7d"/><rect x="367.45" y="81.80" width="2.3" height="16.40" rx="1.1" fill="#ff5d7d"/><rect x="371.10" y="82.14" width="2.3" height="15.72" rx="1.1" fill="#ff5d7d"/><rect x="374.75" y="82.43" width="2.3" height="15.14" rx="1.1" fill="#ff5d7d"/><rect x="378.40" y="82.73" width="2.3" height="14.53" rx="1.1" fill="#ff5d7d"/><rect x="382.05" y="83.81" width="2.3" height="12.38" rx="1.1" fill="#ff5d7d"/><rect x="385.70" y="82.60" width="2.3" height="14.79" rx="1.1" fill="#ff5d7d"/><rect x="389.35" y="82.28" width="2.3" height="15.44" rx="1.1" fill="#ff5d7d"/><rect x="393.00" y="83.50" width="2.3" height="13.00" rx="1.1" fill="#ff5d7d"/><rect x="396.65" y="82.19" width="2.3" height="15.62" rx="1.1" fill="#ff5d7d"/><rect x="400.30" y="82.53" width="2.3" height="14.95" rx="1.1" fill="#ff5d7d"/><rect x="403.95" y="83.80" width="2.3" height="12.40" rx="1.1" fill="#ff5d7d"/><rect x="407.60" y="82.87" width="2.3" height="14.26" rx="1.1" fill="#ff5d7d"/><rect x="411.25" y="83.31" width="2.3" height="13.38" rx="1.1" fill="#ff5d7d"/><rect x="414.90" y="85.06" width="2.3" height="9.87" rx="1.1" fill="#ff5d7d"/><rect x="418.55" y="84.00" width="2.3" height="12.01" rx="1.1" fill="#ff5d7d"/><rect x="422.20" y="84.98" width="2.3" height="10.03" rx="1.1" fill="#ff5d7d"/><rect x="425.85" y="85.31" width="2.3" height="9.39" rx="1.1" fill="#ff5d7d"/><rect x="429.50" y="86.51" width="2.3" height="6.98" rx="1.1" fill="#ff5d7d"/><rect x="433.15" y="86.12" width="2.3" height="7.75" rx="1.1" fill="#ff5d7d"/><rect x="436.80" y="86.83" width="2.3" height="6.35" rx="1.1" fill="#ff5d7d"/><rect x="440.45" y="88.22" width="2.3" height="3.56" rx="1.1" fill="#ff5d7d"/><rect x="444.10" y="87.50" width="2.3" height="4.99" rx="1.1" fill="#ff5d7d"/><rect x="447.75" y="87.91" width="2.3" height="4.18" rx="1.1" fill="#ff5d7d"/><rect x="451.40" y="87.80" width="2.3" height="4.40" rx="1.1" fill="#ff5d7d"/><rect x="455.05" y="88.42" width="2.3" height="3.16" rx="1.1" fill="#ff5d7d"/><rect x="458.70" y="87.92" width="2.3" height="4.16" rx="1.1" fill="#ff5d7d"/><rect x="462.35" y="87.96" width="2.3" height="4.08" rx="1.1" fill="#ff5d7d"/><rect x="466.00" y="88.25" width="2.3" height="3.50" rx="1.1" fill="#ff5d7d"/><rect x="469.65" y="88.11" width="2.3" height="3.78" rx="1.1" fill="#ff5d7d"/><rect x="473.30" y="88.29" width="2.3" height="3.42" rx="1.1" fill="#ff5d7d"/><rect x="476.95" y="88.17" width="2.3" height="3.66" rx="1.1" fill="#ff5d7d"/><rect x="480.60" y="89.00" width="2.3" height="2.00" rx="1.1" fill="#ff5d7d"/><rect x="484.25" y="88.57" width="2.3" height="2.86" rx="1.1" fill="#ff5d7d"/><rect x="487.90" y="88.76" width="2.3" height="2.49" rx="1.1" fill="#ff5d7d"/><rect x="491.55" y="88.81" width="2.3" height="2.39" rx="1.1" fill="#ff5d7d"/><rect x="495.20" y="89.00" width="2.3" height="2.00" rx="1.1" fill="#ff5d7d"/><rect x="498.85" y="89.00" width="2.3" height="2.00" rx="1.1" fill="#ff5d7d"/><rect x="502.50" y="89.00" width="2.3" height="2.00" rx="1.1" fill="#ff5d7d"/><rect x="506.15" y="89.00" width="2.3" height="2.00" rx="1.1" fill="#ff5d7d"/><rect x="509.80" y="89.00" width="2.3" height="2.00" rx="1.1" fill="#ff5d7d"/><rect x="513.45" y="89.00" width="2.3" height="2.00" rx="1.1" fill="#ff5d7d"/><rect x="517.10" y="89.00" width="2.3" height="2.00" rx="1.1" fill="#ff5d7d"/><rect x="520.75" y="89.00" width="2.3" height="2.00" rx="1.1" fill="#ff5d7d"/><rect x="524.40" y="89.00" width="2.3" height="2.00" rx="1.1" fill="#ff5d7d"/><rect x="528.05" y="89.00" width="2.3" height="2.00" rx="1.1" fill="#ff5d7d"/><rect x="531.70" y="89.00" width="2.3" height="2.00" rx="1.1" fill="#ff5d7d"/><rect x="535.35" y="89.00" width="2.3" height="2.00" rx="1.1" fill="#ff5d7d"/><rect x="539.00" y="89.00" width="2.3" height="2.00" rx="1.1" fill="#ff5d7d"/><rect x="542.65" y="89.00" width="2.3" height="2.00" rx="1.1" fill="#ff5d7d"/><rect x="546.30" y="89.00" width="2.3" height="2.00" rx="1.1" fill="#ff5d7d"/><rect x="549.95" y="89.00" width="2.3" height="2.00" rx="1.1" fill="#ff5d7d"/><rect x="553.60" y="89.00" width="2.3" height="2.00" rx="1.1" fill="#ff5d7d"/><rect x="557.25" y="89.00" width="2.3" height="2.00" rx="1.1" fill="#ff5d7d"/><rect x="560.90" y="89.00" width="2.3" height="2.00" rx="1.1" fill="#ff5d7d"/><rect x="564.55" y="89.00" width="2.3" height="2.00" rx="1.1" fill="#ff5d7d"/><rect x="568.20" y="89.00" width="2.3" height="2.00" rx="1.1" fill="#ff5d7d"/><rect x="571.85" y="89.00" width="2.3" height="2.00" rx="1.1" fill="#ff5d7d"/><rect x="575.50" y="89.00" width="2.3" height="2.00" rx="1.1" fill="#ff5d7d"/><rect x="579.15" y="89.00" width="2.3" height="2.00" rx="1.1" fill="#ff5d7d"/><rect x="582.80" y="89.00" width="2.3" height="2.00" rx="1.1" fill="#ff5d7d"/><rect x="586.45" y="89.00" width="2.3" height="2.00" rx="1.1" fill="#ff5d7d"/><rect x="590.10" y="89.00" width="2.3" height="2.00" rx="1.1" fill="#ff5d7d"/><rect x="593.75" y="89.00" width="2.3" height="2.00" rx="1.1" fill="#ff5d7d"/><rect x="597.40" y="89.00" width="2.3" height="2.00" rx="1.1" fill="#ff5d7d"/><rect x="601.05" y="89.00" width="2.3" height="2.00" rx="1.1" fill="#ff5d7d"/><rect x="604.70" y="89.00" width="2.3" height="2.00" rx="1.1" fill="#ff5d7d"/><rect x="608.35" y="89.00" width="2.3" height="2.00" rx="1.1" fill="#ff5d7d"/></g>
</svg>
