<svg xmlns="http://www.w3.org/2000/svg" width="640" height="180" viewBox="0 0 640 180" role="img" aria-label="Hover 3 waveform">
  <rect width="640" height="180" rx="18" fill="#10171d"/>
  <rect x="1" y="1" width="638" height="178" rx="17" fill="none" stroke="#2d3943" stroke-width="2"/>
  <text x="28" y="38" fill="#f6fbff" font-family="Inter, Arial, sans-serif" font-weight="850" font-size="24">Hover 3</text>
  <text x="612" y="38" fill="#4bd9ee" text-anchor="end" font-family="Inter, Arial, sans-serif" font-weight="800" font-size="16">144 ms</text>
  <g opacity="0.96"><rect x="28.00" y="74.47" width="2.3" height="31.06" rx="1.1" fill="#4bd9ee"/><rect x="31.65" y="77.92" width="2.3" height="24.15" rx="1.1" fill="#4bd9ee"/><rect x="35.30" y="79.91" width="2.3" height="20.18" rx="1.1" fill="#4bd9ee"/><rect x="38.95" y="81.02" width="2.3" height="17.96" rx="1.1" fill="#4bd9ee"/><rect x="42.60" y="80.05" width="2.3" height="19.90" rx="1.1" fill="#4bd9ee"/><rect x="46.25" y="78.97" width="2.3" height="22.05" rx="1.1" fill="#4bd9ee"/><rect x="49.90" y="76.72" width="2.3" height="26.55" rx="1.1" fill="#4bd9ee"/><rect x="53.55" y="75.03" width="2.3" height="29.93" rx="1.1" fill="#4bd9ee"/><rect x="57.20" y="69.54" width="2.3" height="40.92" rx="1.1" fill="#4bd9ee"/><rect x="60.85" y="67.97" width="2.3" height="44.05" rx="1.1" fill="#4bd9ee"/><rect x="64.50" y="65.78" width="2.3" height="48.44" rx="1.1" fill="#4bd9ee"/><rect x="68.15" y="63.99" width="2.3" height="52.01" rx="1.1" fill="#4bd9ee"/><rect x="71.80" y="64.34" width="2.3" height="51.33" rx="1.1" fill="#4bd9ee"/><rect x="75.45" y="61.24" width="2.3" height="57.52" rx="1.1" fill="#4bd9ee"/><rect x="79.10" y="60.45" width="2.3" height="59.09" rx="1.1" fill="#4bd9ee"/><rect x="82.75" y="57.27" width="2.3" height="65.46" rx="1.1" fill="#4bd9ee"/><rect x="86.40" y="57.37" width="2.3" height="65.26" rx="1.1" fill="#4bd9ee"/><rect x="90.05" y="56.66" width="2.3" height="66.68" rx="1.1" fill="#4bd9ee"/><rect x="93.70" y="54.53" width="2.3" height="70.93" rx="1.1" fill="#4bd9ee"/><rect x="97.35" y="54.60" width="2.3" height="70.81" rx="1.1" fill="#4bd9ee"/><rect x="101.00" y="51.55" width="2.3" height="76.91" rx="1.1" fill="#4bd9ee"/><rect x="104.65" y="54.20" width="2.3" height="71.61" rx="1.1" fill="#4bd9ee"/><rect x="108.30" y="51.30" width="2.3" height="77.40" rx="1.1" fill="#4bd9ee"/><rect x="111.95" y="48.90" width="2.3" height="82.20" rx="1.1" fill="#4bd9ee"/><rect x="115.60" y="48.17" width="2.3" height="83.66" rx="1.1" fill="#4bd9ee"/><rect x="119.25" y="50.50" width="2.3" height="78.99" rx="1.1" fill="#4bd9ee"/><rect x="122.90" y="48.95" width="2.3" height="82.11" rx="1.1" fill="#4bd9ee"/><rect x="126.55" y="47.57" width="2.3" height="84.86" rx="1.1" fill="#4bd9ee"/><rect x="130.20" y="47.37" width="2.3" height="85.26" rx="1.1" fill="#4bd9ee"/><rect x="133.85" y="46.24" width="2.3" height="87.52" rx="1.1" fill="#4bd9ee"/><rect x="137.50" y="46.22" width="2.3" height="87.56" rx="1.1" fill="#4bd9ee"/><rect x="141.15" y="45.66" width="2.3" height="88.67" rx="1.1" fill="#4bd9ee"/><rect x="144.80" y="45.38" width="2.3" height="89.23" rx="1.1" fill="#4bd9ee"/><rect x="148.45" y="47.20" width="2.3" height="85.61" rx="1.1" fill="#4bd9ee"/><rect x="152.10" y="44.08" width="2.3" height="91.84" rx="1.1" fill="#4bd9ee"/><rect x="155.75" y="46.22" width="2.3" height="87.55" rx="1.1" fill="#4bd9ee"/><rect x="159.40" y="46.80" width="2.3" height="86.40" rx="1.1" fill="#4bd9ee"/><rect x="163.05" y="45.09" width="2.3" height="89.81" rx="1.1" fill="#4bd9ee"/><rect x="166.70" y="46.81" width="2.3" height="86.37" rx="1.1" fill="#4bd9ee"/><rect x="170.35" y="45.28" width="2.3" height="89.45" rx="1.1" fill="#4bd9ee"/><rect x="174.00" y="44.76" width="2.3" height="90.48" rx="1.1" fill="#4bd9ee"/><rect x="177.65" y="46.45" width="2.3" height="87.11" rx="1.1" fill="#4bd9ee"/><rect x="181.30" y="44.17" width="2.3" height="91.67" rx="1.1" fill="#4bd9ee"/><rect x="184.95" y="46.21" width="2.3" height="87.57" rx="1.1" fill="#4bd9ee"/><rect x="188.60" y="45.89" width="2.3" height="88.23" rx="1.1" fill="#4bd9ee"/><rect x="192.25" y="48.04" width="2.3" height="83.91" rx="1.1" fill="#4bd9ee"/><rect x="195.90" y="46.61" width="2.3" height="86.78" rx="1.1" fill="#4bd9ee"/><rect x="199.55" y="47.06" width="2.3" height="85.88" rx="1.1" fill="#4bd9ee"/><rect x="203.20" y="47.07" width="2.3" height="85.87" rx="1.1" fill="#4bd9ee"/><rect x="206.85" y="47.40" width="2.3" height="85.19" rx="1.1" fill="#4bd9ee"/><rect x="210.50" y="49.87" width="2.3" height="80.26" rx="1.1" fill="#4bd9ee"/><rect x="214.15" y="51.15" width="2.3" height="77.70" rx="1.1" fill="#4bd9ee"/><rect x="217.80" y="49.01" width="2.3" height="81.98" rx="1.1" fill="#4bd9ee"/><rect x="221.45" y="52.33" width="2.3" height="75.34" rx="1.1" fill="#4bd9ee"/><rect x="225.10" y="49.82" width="2.3" height="80.36" rx="1.1" fill="#4bd9ee"/><rect x="228.75" y="53.02" width="2.3" height="73.95" rx="1.1" fill="#4bd9ee"/><rect x="232.40" y="51.39" width="2.3" height="77.21" rx="1.1" fill="#4bd9ee"/><rect x="236.05" y="52.65" width="2.3" height="74.70" rx="1.1" fill="#4bd9ee"/><rect x="239.70" y="56.24" width="2.3" height="67.51" rx="1.1" fill="#4bd9ee"/><rect x="243.35" y="54.35" width="2.3" height="71.30" rx="1.1" fill="#4bd9ee"/><rect x="247.00" y="54.34" width="2.3" height="71.32" rx="1.1" fill="#4bd9ee"/><rect x="250.65" y="55.01" width="2.3" height="69.99" rx="1.1" fill="#4bd9ee"/><rect x="254.30" y="55.58" width="2.3" height="68.84" rx="1.1" fill="#4bd9ee"/><rect x="257.95" y="57.11" width="2.3" height="65.78" rx="1.1" fill="#4bd9ee"/><rect x="261.60" y="58.54" width="2.3" height="62.91" rx="1.1" fill="#4bd9ee"/><rect x="265.25" y="58.86" width="2.3" height="62.27" rx="1.1" fill="#4bd9ee"/><rect x="268.90" y="58.67" width="2.3" height="62.66" rx="1.1" fill="#4bd9ee"/><rect x="272.55" y="59.24" width="2.3" height="61.53" rx="1.1" fill="#4bd9ee"/><rect x="276.20" y="61.07" width="2.3" height="57.86" rx="1.1" fill="#4bd9ee"/><rect x="279.85" y="60.61" width="2.3" height="58.77" rx="1.1" fill="#4bd9ee"/><rect x="283.50" y="61.65" width="2.3" height="56.70" rx="1.1" fill="#4bd9ee"/><rect x="287.15" y="63.33" width="2.3" height="53.33" rx="1.1" fill="#4bd9ee"/><rect x="290.80" y="62.96" width="2.3" height="54.08" rx="1.1" fill="#4bd9ee"/><rect x="294.45" y="63.65" width="2.3" height="52.71" rx="1.1" fill="#4bd9ee"/><rect x="298.10" y="65.34" width="2.3" height="49.33" rx="1.1" fill="#4bd9ee"/><rect x="301.75" y="65.01" width="2.3" height="49.99" rx="1.1" fill="#4bd9ee"/><rect x="305.40" y="66.24" width="2.3" height="47.53" rx="1.1" fill="#4bd9ee"/><rect x="309.05" y="66.74" width="2.3" height="46.51" rx="1.1" fill="#4bd9ee"/><rect x="312.70" y="66.76" width="2.3" height="46.47" rx="1.1" fill="#4bd9ee"/><rect x="316.35" y="69.20" width="2.3" height="41.60" rx="1.1" fill="#4bd9ee"/><rect x="320.00" y="68.92" width="2.3" height="42.16" rx="1.1" fill="#4bd9ee"/><rect x="323.65" y="69.76" width="2.3" height="40.48" rx="1.1" fill="#4bd9ee"/><rect x="327.30" y="70.83" width="2.3" height="38.34" rx="1.1" fill="#4bd9ee"/><rect x="330.95" y="71.17" width="2.3" height="37.67" rx="1.1" fill="#4bd9ee"/><rect x="334.60" y="72.27" width="2.3" height="35.46" rx="1.1" fill="#4bd9ee"/><rect x="338.25" y="72.41" width="2.3" height="35.18" rx="1.1" fill="#4bd9ee"/><rect x="341.90" y="72.92" width="2.3" height="34.16" rx="1.1" fill="#4bd9ee"/><rect x="345.55" y="73.69" width="2.3" height="32.63" rx="1.1" fill="#4bd9ee"/><rect x="349.20" y="74.27" width="2.3" height="31.46" rx="1.1" fill="#4bd9ee"/><rect x="352.85" y="74.64" width="2.3" height="30.72" rx="1.1" fill="#4bd9ee"/><rect x="356.50" y="75.85" width="2.3" height="28.31" rx="1.1" fill="#4bd9ee"/><rect x="360.15" y="75.81" width="2.3" height="28.37" rx="1.1" fill="#4bd9ee"/><rect x="363.80" y="76.73" width="2.3" height="26.54" rx="1.1" fill="#4bd9ee"/><rect x="367.45" y="77.80" width="2.3" height="24.40" rx="1.1" fill="#4bd9ee"/><rect x="371.10" y="77.58" width="2.3" height="24.85" rx="1.1" fill="#4bd9ee"/><rect x="374.75" y="78.63" width="2.3" height="22.73" rx="1.1" fill="#4bd9ee"/><rect x="378.40" y="78.52" width="2.3" height="22.96" rx="1.1" fill="#4bd9ee"/><rect x="382.05" y="79.60" width="2.3" height="20.79" rx="1.1" fill="#4bd9ee"/><rect x="385.70" y="80.35" width="2.3" height="19.30" rx="1.1" fill="#4bd9ee"/><rect x="389.35" y="80.43" width="2.3" height="19.15" rx="1.1" fill="#4bd9ee"/><rect x="393.00" y="81.07" width="2.3" height="17.87" rx="1.1" fill="#4bd9ee"/><rect x="396.65" y="81.82" width="2.3" height="16.36" rx="1.1" fill="#4bd9ee"/><rect x="400.30" y="81.86" width="2.3" height="16.29" rx="1.1" fill="#4bd9ee"/><rect x="403.95" y="82.40" width="2.3" height="15.20" rx="1.1" fill="#4bd9ee"/><rect x="407.60" y="82.98" width="2.3" height="14.03" rx="1.1" fill="#4bd9ee"/><rect x="411.25" y="83.28" width="2.3" height="13.44" rx="1.1" fill="#4bd9ee"/><rect x="414.90" y="83.51" width="2.3" height="12.97" rx="1.1" fill="#4bd9ee"/><rect x="418.55" y="84.00" width="2.3" height="11.99" rx="1.1" fill="#4bd9ee"/><rect x="422.20" y="84.18" width="2.3" height="11.64" rx="1.1" fill="#4bd9ee"/><rect x="425.85" y="84.71" width="2.3" height="10.59" rx="1.1" fill="#4bd9ee"/><rect x="429.50" y="85.23" width="2.3" height="9.55" rx="1.1" fill="#4bd9ee"/><rect x="433.15" y="85.25" width="2.3" height="9.50" rx="1.1" fill="#4bd9ee"/><rect x="436.80" y="85.68" width="2.3" height="8.63" rx="1.1" fill="#4bd9ee"/><rect x="440.45" y="85.91" width="2.3" height="8.19" rx="1.1" fill="#4bd9ee"/><rect x="444.10" y="86.18" width="2.3" height="7.64" rx="1.1" fill="#4bd9ee"/><rect x="447.75" y="86.39" width="2.3" height="7.22" rx="1.1" fill="#4bd9ee"/><rect x="451.40" y="86.93" width="2.3" height="6.13" rx="1.1" fill="#4bd9ee"/><rect x="455.05" y="86.88" width="2.3" height="6.24" rx="1.1" fill="#4bd9ee"/><rect x="458.70" y="87.11" width="2.3" height="5.78" rx="1.1" fill="#4bd9ee"/><rect x="462.35" y="87.54" width="2.3" height="4.92" rx="1.1" fill="#4bd9ee"/><rect x="466.00" y="87.67" width="2.3" height="4.65" rx="1.1" fill="#4bd9ee"/><rect x="469.65" y="87.80" width="2.3" height="4.41" rx="1.1" fill="#4bd9ee"/><rect x="473.30" y="88.08" width="2.3" height="3.85" rx="1.1" fill="#4bd9ee"/><rect x="476.95" y="88.15" width="2.3" height="3.70" rx="1.1" fill="#4bd9ee"/><rect x="480.60" y="88.31" width="2.3" height="3.39" rx="1.1" fill="#4bd9ee"/><rect x="484.25" y="88.55" width="2.3" height="2.89" rx="1.1" fill="#4bd9ee"/><rect x="487.90" y="88.62" width="2.3" height="2.75" rx="1.1" fill="#4bd9ee"/><rect x="491.55" y="88.76" width="2.3" height="2.49" rx="1.1" fill="#4bd9ee"/><rect x="495.20" y="88.94" width="2.3" height="2.12" rx="1.1" fill="#4bd9ee"/><rect x="498.85" y="88.98" width="2.3" height="2.05" rx="1.1" fill="#4bd9ee"/><rect x="502.50" y="89.00" width="2.3" height="2.00" rx="1.1" fill="#4bd9ee"/><rect x="506.15" y="89.00" width="2.3" height="2.00" rx="1.1" fill="#4bd9ee"/><rect x="509.80" y="89.00" width="2.3" height="2.00" rx="1.1" fill="#4bd9ee"/><rect x="513.45" y="89.00" width="2.3" height="2.00" rx="1.1" fill="#4bd9ee"/><rect x="517.10" y="89.00" width="2.3" height="2.00" rx="1.1" fill="#4bd9ee"/><rect x="520.75" y="89.00" width="2.3" height="2.00" rx="1.1" fill="#4bd9ee"/><rect x="524.40" y="89.00" width="2.3" height="2.00" rx="1.1" fill="#4bd9ee"/><rect x="528.05" y="89.00" width="2.3" height="2.00" rx="1.1" fill="#4bd9ee"/><rect x="531.70" y="89.00" width="2.3" height="2.00" rx="1.1" fill="#4bd9ee"/><rect x="535.35" y="89.00" width="2.3" height="2.00" rx="1.1" fill="#4bd9ee"/><rect x="539.00" y="89.00" width="2.3" height="2.00" rx="1.1" fill="#4bd9ee"/><rect x="542.65" y="89.00" width="2.3" height="2.00" rx="1.1" fill="#4bd9ee"/><rect x="546.30" y="89.00" width="2.3" height="2.00" rx="1.1" fill="#4bd9ee"/><rect x="549.95" y="89.00" width="2.3" height="2.00" rx="1.1" fill="#4bd9ee"/><rect x="553.60" y="89.00" width="2.3" height="2.00" rx="1.1" fill="#4bd9ee"/><rect x="557.25" y="89.00" width="2.3" height="2.00" rx="1.1" fill="#4bd9ee"/><rect x="560.90" y="89.00" width="2.3" height="2.00" rx="1.1" fill="#4bd9ee"/><rect x="564.55" y="89.00" width="2.3" height="2.00" rx="1.1" fill="#4bd9ee"/><rect x="568.20" y="89.00" width="2.3" height="2.00" rx="1.1" fill="#4bd9ee"/><rect x="571.85" y="89.00" width="2.3" height="2.00" rx="1.1" fill="#4bd9ee"/><rect x="575.50" y="89.00" width="2.3" height="2.00" rx="1.1" fill="#4bd9ee"/><rect x="579.15" y="89.00" width="2.3" height="2.00" rx="1.1" fill="#4bd9ee"/><rect x="582.80" y="89.00" width="2.3" height="2.00" rx="1.1" fill="#4bd9ee"/><rect x="586.45" y="89.00" width="2.3" height="2.00" rx="1.1" fill="#4bd9ee"/><rect x="590.10" y="89.00" width="2.3" height="2.00" rx="1.1" fill="#4bd9ee"/><rect x="593.75" y="89.00" width="2.3" height="2.00" rx="1.1" fill="#4bd9ee"/><rect x="597.40" y="89.00" width="2.3" height="2.00" rx="1.1" fill="#4bd9ee"/><rect x="601.05" y="89.00" width="2.3" height="2.00" rx="1.1" fill="#4bd9ee"/><rect x="604.70" y="89.00" width="2.3" height="2.00" rx="1.1" fill="#4bd9ee"/><rect x="608.35" y="89.00" width="2.3" height="2.00" rx="1.1" fill="#4bd9ee"/></g>
</svg>
