<svg xmlns="http://www.w3.org/2000/svg" width="640" height="180" viewBox="0 0 640 180" role="img" aria-label="Hover 1 waveform">
  <rect width="640" height="180" rx="18" fill="#10171d"/>
  <rect x="1" y="1" width="638" height="178" rx="17" fill="none" stroke="#2d3943" stroke-width="2"/>
  <text x="28" y="38" fill="#f6fbff" font-family="Inter, Arial, sans-serif" font-weight="850" font-size="24">Hover 1</text>
  <text x="612" y="38" fill="#4bd9ee" text-anchor="end" font-family="Inter, Arial, sans-serif" font-weight="800" font-size="16">128 ms</text>
  <g opacity="0.96"><rect x="28.00" y="76.05" width="2.3" height="27.90" rx="1.1" fill="#4bd9ee"/><rect x="31.65" y="78.35" width="2.3" height="23.30" rx="1.1" fill="#4bd9ee"/><rect x="35.30" y="80.59" width="2.3" height="18.82" rx="1.1" fill="#4bd9ee"/><rect x="38.95" y="82.16" width="2.3" height="15.68" rx="1.1" fill="#4bd9ee"/><rect x="42.60" y="80.90" width="2.3" height="18.21" rx="1.1" fill="#4bd9ee"/><rect x="46.25" y="80.57" width="2.3" height="18.86" rx="1.1" fill="#4bd9ee"/><rect x="49.90" y="75.32" width="2.3" height="29.35" rx="1.1" fill="#4bd9ee"/><rect x="53.55" y="76.22" width="2.3" height="27.56" rx="1.1" fill="#4bd9ee"/><rect x="57.20" y="68.83" width="2.3" height="42.35" rx="1.1" fill="#4bd9ee"/><rect x="60.85" y="68.95" width="2.3" height="42.10" rx="1.1" fill="#4bd9ee"/><rect x="64.50" y="66.02" width="2.3" height="47.96" rx="1.1" fill="#4bd9ee"/><rect x="68.15" y="64.82" width="2.3" height="50.36" rx="1.1" fill="#4bd9ee"/><rect x="71.80" y="61.29" width="2.3" height="57.42" rx="1.1" fill="#4bd9ee"/><rect x="75.45" y="60.11" width="2.3" height="59.78" rx="1.1" fill="#4bd9ee"/><rect x="79.10" y="58.80" width="2.3" height="62.39" rx="1.1" fill="#4bd9ee"/><rect x="82.75" y="57.80" width="2.3" height="64.39" rx="1.1" fill="#4bd9ee"/><rect x="86.40" y="57.37" width="2.3" height="65.26" rx="1.1" fill="#4bd9ee"/><rect x="90.05" y="54.74" width="2.3" height="70.51" rx="1.1" fill="#4bd9ee"/><rect x="93.70" y="61.45" width="2.3" height="57.11" rx="1.1" fill="#4bd9ee"/><rect x="97.35" y="52.26" width="2.3" height="75.48" rx="1.1" fill="#4bd9ee"/><rect x="101.00" y="56.44" width="2.3" height="67.12" rx="1.1" fill="#4bd9ee"/><rect x="104.65" y="51.88" width="2.3" height="76.25" rx="1.1" fill="#4bd9ee"/><rect x="108.30" y="51.16" width="2.3" height="77.68" rx="1.1" fill="#4bd9ee"/><rect x="111.95" y="49.21" width="2.3" height="81.58" rx="1.1" fill="#4bd9ee"/><rect x="115.60" y="49.52" width="2.3" height="80.96" rx="1.1" fill="#4bd9ee"/><rect x="119.25" y="47.74" width="2.3" height="84.52" rx="1.1" fill="#4bd9ee"/><rect x="122.90" y="47.96" width="2.3" height="84.09" rx="1.1" fill="#4bd9ee"/><rect x="126.55" y="45.67" width="2.3" height="88.65" rx="1.1" fill="#4bd9ee"/><rect x="130.20" y="45.75" width="2.3" height="88.51" rx="1.1" fill="#4bd9ee"/><rect x="133.85" y="46.21" width="2.3" height="87.58" rx="1.1" fill="#4bd9ee"/><rect x="137.50" y="44.98" width="2.3" height="90.03" rx="1.1" fill="#4bd9ee"/><rect x="141.15" y="51.93" width="2.3" height="76.15" rx="1.1" fill="#4bd9ee"/><rect x="144.80" y="45.44" width="2.3" height="89.12" rx="1.1" fill="#4bd9ee"/><rect x="148.45" y="54.69" width="2.3" height="70.61" rx="1.1" fill="#4bd9ee"/><rect x="152.10" y="44.18" width="2.3" height="91.63" rx="1.1" fill="#4bd9ee"/><rect x="155.75" y="46.89" width="2.3" height="86.21" rx="1.1" fill="#4bd9ee"/><rect x="159.40" y="44.08" width="2.3" height="91.84" rx="1.1" fill="#4bd9ee"/><rect x="163.05" y="44.27" width="2.3" height="91.46" rx="1.1" fill="#4bd9ee"/><rect x="166.70" y="44.63" width="2.3" height="90.75" rx="1.1" fill="#4bd9ee"/><rect x="170.35" y="44.99" width="2.3" height="90.01" rx="1.1" fill="#4bd9ee"/><rect x="174.00" y="45.53" width="2.3" height="88.94" rx="1.1" fill="#4bd9ee"/><rect x="177.65" y="44.55" width="2.3" height="90.90" rx="1.1" fill="#4bd9ee"/><rect x="181.30" y="46.68" width="2.3" height="86.65" rx="1.1" fill="#4bd9ee"/><rect x="184.95" y="45.95" width="2.3" height="88.11" rx="1.1" fill="#4bd9ee"/><rect x="188.60" y="46.65" width="2.3" height="86.71" rx="1.1" fill="#4bd9ee"/><rect x="192.25" y="45.94" width="2.3" height="88.12" rx="1.1" fill="#4bd9ee"/><rect x="195.90" y="46.52" width="2.3" height="86.96" rx="1.1" fill="#4bd9ee"/><rect x="199.55" y="47.41" width="2.3" height="85.17" rx="1.1" fill="#4bd9ee"/><rect x="203.20" y="49.98" width="2.3" height="80.05" rx="1.1" fill="#4bd9ee"/><rect x="206.85" y="46.98" width="2.3" height="86.03" rx="1.1" fill="#4bd9ee"/><rect x="210.50" y="55.40" width="2.3" height="69.20" rx="1.1" fill="#4bd9ee"/><rect x="214.15" y="49.27" width="2.3" height="81.45" rx="1.1" fill="#4bd9ee"/><rect x="217.80" y="56.90" width="2.3" height="66.20" rx="1.1" fill="#4bd9ee"/><rect x="221.45" y="49.96" width="2.3" height="80.08" rx="1.1" fill="#4bd9ee"/><rect x="225.10" y="54.67" width="2.3" height="70.67" rx="1.1" fill="#4bd9ee"/><rect x="228.75" y="51.95" width="2.3" height="76.10" rx="1.1" fill="#4bd9ee"/><rect x="232.40" y="52.91" width="2.3" height="74.17" rx="1.1" fill="#4bd9ee"/><rect x="236.05" y="52.95" width="2.3" height="74.10" rx="1.1" fill="#4bd9ee"/><rect x="239.70" y="53.53" width="2.3" height="72.93" rx="1.1" fill="#4bd9ee"/><rect x="243.35" y="55.34" width="2.3" height="69.31" rx="1.1" fill="#4bd9ee"/><rect x="247.00" y="54.55" width="2.3" height="70.91" rx="1.1" fill="#4bd9ee"/><rect x="250.65" y="55.12" width="2.3" height="69.75" rx="1.1" fill="#4bd9ee"/><rect x="254.30" y="56.83" width="2.3" height="66.35" rx="1.1" fill="#4bd9ee"/><rect x="257.95" y="58.14" width="2.3" height="63.71" rx="1.1" fill="#4bd9ee"/><rect x="261.60" y="56.79" width="2.3" height="66.41" rx="1.1" fill="#4bd9ee"/><rect x="265.25" y="58.43" width="2.3" height="63.15" rx="1.1" fill="#4bd9ee"/><rect x="268.90" y="59.21" width="2.3" height="61.59" rx="1.1" fill="#4bd9ee"/><rect x="272.55" y="60.94" width="2.3" height="58.12" rx="1.1" fill="#4bd9ee"/><rect x="276.20" y="60.08" width="2.3" height="59.85" rx="1.1" fill="#4bd9ee"/><rect x="279.85" y="61.46" width="2.3" height="57.09" rx="1.1" fill="#4bd9ee"/><rect x="283.50" y="62.12" width="2.3" height="55.77" rx="1.1" fill="#4bd9ee"/><rect x="287.15" y="62.93" width="2.3" height="54.13" rx="1.1" fill="#4bd9ee"/><rect x="290.80" y="63.33" width="2.3" height="53.35" rx="1.1" fill="#4bd9ee"/><rect x="294.45" y="64.83" width="2.3" height="50.33" rx="1.1" fill="#4bd9ee"/><rect x="298.10" y="64.67" width="2.3" height="50.65" rx="1.1" fill="#4bd9ee"/><rect x="301.75" y="66.29" width="2.3" height="47.43" rx="1.1" fill="#4bd9ee"/><rect x="305.40" y="66.97" width="2.3" height="46.07" rx="1.1" fill="#4bd9ee"/><rect x="309.05" y="67.59" width="2.3" height="44.82" rx="1.1" fill="#4bd9ee"/><rect x="312.70" y="68.30" width="2.3" height="43.41" rx="1.1" fill="#4bd9ee"/><rect x="316.35" y="68.72" width="2.3" height="42.57" rx="1.1" fill="#4bd9ee"/><rect x="320.00" y="69.03" width="2.3" height="41.94" rx="1.1" fill="#4bd9ee"/><rect x="323.65" y="70.13" width="2.3" height="39.73" rx="1.1" fill="#4bd9ee"/><rect x="327.30" y="71.50" width="2.3" height="37.00" rx="1.1" fill="#4bd9ee"/><rect x="330.95" y="71.28" width="2.3" height="37.43" rx="1.1" fill="#4bd9ee"/><rect x="334.60" y="72.09" width="2.3" height="35.82" rx="1.1" fill="#4bd9ee"/><rect x="338.25" y="73.26" width="2.3" height="33.47" rx="1.1" fill="#4bd9ee"/><rect x="341.90" y="74.03" width="2.3" height="31.94" rx="1.1" fill="#4bd9ee"/><rect x="345.55" y="74.54" width="2.3" height="30.93" rx="1.1" fill="#4bd9ee"/><rect x="349.20" y="74.78" width="2.3" height="30.45" rx="1.1" fill="#4bd9ee"/><rect x="352.85" y="75.82" width="2.3" height="28.37" rx="1.1" fill="#4bd9ee"/><rect x="356.50" y="75.33" width="2.3" height="29.33" rx="1.1" fill="#4bd9ee"/><rect x="360.15" y="76.78" width="2.3" height="26.44" rx="1.1" fill="#4bd9ee"/><rect x="363.80" y="76.99" width="2.3" height="26.01" rx="1.1" fill="#4bd9ee"/><rect x="367.45" y="77.91" width="2.3" height="24.19" rx="1.1" fill="#4bd9ee"/><rect x="371.10" y="78.44" width="2.3" height="23.11" rx="1.1" fill="#4bd9ee"/><rect x="374.75" y="78.74" width="2.3" height="22.53" rx="1.1" fill="#4bd9ee"/><rect x="378.40" y="79.19" width="2.3" height="21.63" rx="1.1" fill="#4bd9ee"/><rect x="382.05" y="79.73" width="2.3" height="20.55" rx="1.1" fill="#4bd9ee"/><rect x="385.70" y="80.38" width="2.3" height="19.23" rx="1.1" fill="#4bd9ee"/><rect x="389.35" y="80.74" width="2.3" height="18.52" rx="1.1" fill="#4bd9ee"/><rect x="393.00" y="81.13" width="2.3" height="17.73" rx="1.1" fill="#4bd9ee"/><rect x="396.65" y="81.84" width="2.3" height="16.32" rx="1.1" fill="#4bd9ee"/><rect x="400.30" y="82.77" width="2.3" height="14.46" rx="1.1" fill="#4bd9ee"/><rect x="403.95" y="82.63" width="2.3" height="14.73" rx="1.1" fill="#4bd9ee"/><rect x="407.60" y="83.94" width="2.3" height="12.12" rx="1.1" fill="#4bd9ee"/><rect x="411.25" y="83.41" width="2.3" height="13.19" rx="1.1" fill="#4bd9ee"/><rect x="414.90" y="84.67" width="2.3" height="10.65" rx="1.1" fill="#4bd9ee"/><rect x="418.55" y="84.12" width="2.3" height="11.76" rx="1.1" fill="#4bd9ee"/><rect x="422.20" y="84.95" width="2.3" height="10.10" rx="1.1" fill="#4bd9ee"/><rect x="425.85" y="84.77" width="2.3" height="10.45" rx="1.1" fill="#4bd9ee"/><rect x="429.50" y="85.41" width="2.3" height="9.19" rx="1.1" fill="#4bd9ee"/><rect x="433.15" y="85.61" width="2.3" height="8.79" rx="1.1" fill="#4bd9ee"/><rect x="436.80" y="86.15" width="2.3" height="7.70" rx="1.1" fill="#4bd9ee"/><rect x="440.45" y="86.22" width="2.3" height="7.56" rx="1.1" fill="#4bd9ee"/><rect x="444.10" y="86.43" width="2.3" height="7.15" rx="1.1" fill="#4bd9ee"/><rect x="447.75" y="86.81" width="2.3" height="6.37" rx="1.1" fill="#4bd9ee"/><rect x="451.40" y="87.05" width="2.3" height="5.91" rx="1.1" fill="#4bd9ee"/><rect x="455.05" y="87.12" width="2.3" height="5.76" rx="1.1" fill="#4bd9ee"/><rect x="458.70" y="87.41" width="2.3" height="5.19" rx="1.1" fill="#4bd9ee"/><rect x="462.35" y="87.59" width="2.3" height="4.81" rx="1.1" fill="#4bd9ee"/><rect x="466.00" y="87.85" width="2.3" height="4.29" rx="1.1" fill="#4bd9ee"/><rect x="469.65" y="87.98" width="2.3" height="4.05" rx="1.1" fill="#4bd9ee"/><rect x="473.30" y="88.12" width="2.3" height="3.76" rx="1.1" fill="#4bd9ee"/><rect x="476.95" y="88.51" width="2.3" height="2.97" rx="1.1" fill="#4bd9ee"/><rect x="480.60" y="88.44" width="2.3" height="3.12" rx="1.1" fill="#4bd9ee"/><rect x="484.25" y="88.77" width="2.3" height="2.45" rx="1.1" fill="#4bd9ee"/><rect x="487.90" y="88.71" width="2.3" height="2.58" rx="1.1" fill="#4bd9ee"/><rect x="491.55" y="88.97" width="2.3" height="2.06" rx="1.1" fill="#4bd9ee"/><rect x="495.20" y="89.00" width="2.3" height="2.00" rx="1.1" fill="#4bd9ee"/><rect x="498.85" y="89.00" width="2.3" height="2.00" rx="1.1" fill="#4bd9ee"/><rect x="502.50" y="89.00" width="2.3" height="2.00" rx="1.1" fill="#4bd9ee"/><rect x="506.15" y="89.00" width="2.3" height="2.00" rx="1.1" fill="#4bd9ee"/><rect x="509.80" y="89.00" width="2.3" height="2.00" rx="1.1" fill="#4bd9ee"/><rect x="513.45" y="89.00" width="2.3" height="2.00" rx="1.1" fill="#4bd9ee"/><rect x="517.10" y="89.00" width="2.3" height="2.00" rx="1.1" fill="#4bd9ee"/><rect x="520.75" y="89.00" width="2.3" height="2.00" rx="1.1" fill="#4bd9ee"/><rect x="524.40" y="89.00" width="2.3" height="2.00" rx="1.1" fill="#4bd9ee"/><rect x="528.05" y="89.00" width="2.3" height="2.00" rx="1.1" fill="#4bd9ee"/><rect x="531.70" y="89.00" width="2.3" height="2.00" rx="1.1" fill="#4bd9ee"/><rect x="535.35" y="89.00" width="2.3" height="2.00" rx="1.1" fill="#4bd9ee"/><rect x="539.00" y="89.00" width="2.3" height="2.00" rx="1.1" fill="#4bd9ee"/><rect x="542.65" y="89.00" width="2.3" height="2.00" rx="1.1" fill="#4bd9ee"/><rect x="546.30" y="89.00" width="2.3" height="2.00" rx="1.1" fill="#4bd9ee"/><rect x="549.95" y="89.00" width="2.3" height="2.00" rx="1.1" fill="#4bd9ee"/><rect x="553.60" y="89.00" width="2.3" height="2.00" rx="1.1" fill="#4bd9ee"/><rect x="557.25" y="89.00" width="2.3" height="2.00" rx="1.1" fill="#4bd9ee"/><rect x="560.90" y="89.00" width="2.3" height="2.00" rx="1.1" fill="#4bd9ee"/><rect x="564.55" y="89.00" width="2.3" height="2.00" rx="1.1" fill="#4bd9ee"/><rect x="568.20" y="89.00" width="2.3" height="2.00" rx="1.1" fill="#4bd9ee"/><rect x="571.85" y="89.00" width="2.3" height="2.00" rx="1.1" fill="#4bd9ee"/><rect x="575.50" y="89.00" width="2.3" height="2.00" rx="1.1" fill="#4bd9ee"/><rect x="579.15" y="89.00" width="2.3" height="2.00" rx="1.1" fill="#4bd9ee"/><rect x="582.80" y="89.00" width="2.3" height="2.00" rx="1.1" fill="#4bd9ee"/><rect x="586.45" y="89.00" width="2.3" height="2.00" rx="1.1" fill="#4bd9ee"/><rect x="590.10" y="89.00" width="2.3" height="2.00" rx="1.1" fill="#4bd9ee"/><rect x="593.75" y="89.00" width="2.3" height="2.00" rx="1.1" fill="#4bd9ee"/><rect x="597.40" y="89.00" width="2.3" height="2.00" rx="1.1" fill="#4bd9ee"/><rect x="601.05" y="89.00" width="2.3" height="2.00" rx="1.1" fill="#4bd9ee"/><rect x="604.70" y="89.00" width="2.3" height="2.00" rx="1.1" fill="#4bd9ee"/><rect x="608.35" y="89.00" width="2.3" height="2.00" rx="1.1" fill="#4bd9ee"/></g>
</svg>
