<svg xmlns="http://www.w3.org/2000/svg" width="640" height="180" viewBox="0 0 640 180" role="img" aria-label="Toggle 7 waveform">
  <rect width="640" height="180" rx="18" fill="#10171d"/>
  <rect x="1" y="1" width="638" height="178" rx="17" fill="none" stroke="#2d3943" stroke-width="2"/>
  <text x="28" y="38" fill="#f6fbff" font-family="Inter, Arial, sans-serif" font-weight="850" font-size="24">Toggle 7</text>
  <text x="612" y="38" fill="#9aa4ae" text-anchor="end" font-family="Inter, Arial, sans-serif" font-weight="800" font-size="16">193 ms</text>
  <g opacity="0.96"><rect x="28.00" y="75.54" width="2.3" height="28.92" rx="1.1" fill="#9aa4ae"/><rect x="31.65" y="78.33" width="2.3" height="23.35" rx="1.1" fill="#9aa4ae"/><rect x="35.30" y="80.70" width="2.3" height="18.61" rx="1.1" fill="#9aa4ae"/><rect x="38.95" y="80.49" width="2.3" height="19.01" rx="1.1" fill="#9aa4ae"/><rect x="42.60" y="79.51" width="2.3" height="20.98" rx="1.1" fill="#9aa4ae"/><rect x="46.25" y="79.86" width="2.3" height="20.28" rx="1.1" fill="#9aa4ae"/><rect x="49.90" y="76.28" width="2.3" height="27.44" rx="1.1" fill="#9aa4ae"/><rect x="53.55" y="72.73" width="2.3" height="34.55" rx="1.1" fill="#9aa4ae"/><rect x="57.20" y="68.93" width="2.3" height="42.15" rx="1.1" fill="#9aa4ae"/><rect x="60.85" y="66.86" width="2.3" height="46.28" rx="1.1" fill="#9aa4ae"/><rect x="64.50" y="65.68" width="2.3" height="48.64" rx="1.1" fill="#9aa4ae"/><rect x="68.15" y="63.92" width="2.3" height="52.16" rx="1.1" fill="#9aa4ae"/><rect x="71.80" y="61.73" width="2.3" height="56.54" rx="1.1" fill="#9aa4ae"/><rect x="75.45" y="60.94" width="2.3" height="58.11" rx="1.1" fill="#9aa4ae"/><rect x="79.10" y="58.24" width="2.3" height="63.52" rx="1.1" fill="#9aa4ae"/><rect x="82.75" y="58.35" width="2.3" height="63.30" rx="1.1" fill="#9aa4ae"/><rect x="86.40" y="57.10" width="2.3" height="65.79" rx="1.1" fill="#9aa4ae"/><rect x="90.05" y="54.59" width="2.3" height="70.83" rx="1.1" fill="#9aa4ae"/><rect x="93.70" y="54.58" width="2.3" height="70.85" rx="1.1" fill="#9aa4ae"/><rect x="97.35" y="53.21" width="2.3" height="73.57" rx="1.1" fill="#9aa4ae"/><rect x="101.00" y="52.88" width="2.3" height="74.24" rx="1.1" fill="#9aa4ae"/><rect x="104.65" y="50.90" width="2.3" height="78.21" rx="1.1" fill="#9aa4ae"/><rect x="108.30" y="50.67" width="2.3" height="78.67" rx="1.1" fill="#9aa4ae"/><rect x="111.95" y="49.81" width="2.3" height="80.39" rx="1.1" fill="#9aa4ae"/><rect x="115.60" y="49.32" width="2.3" height="81.37" rx="1.1" fill="#9aa4ae"/><rect x="119.25" y="48.06" width="2.3" height="83.88" rx="1.1" fill="#9aa4ae"/><rect x="122.90" y="47.73" width="2.3" height="84.53" rx="1.1" fill="#9aa4ae"/><rect x="126.55" y="47.86" width="2.3" height="84.29" rx="1.1" fill="#9aa4ae"/><rect x="130.20" y="46.71" width="2.3" height="86.57" rx="1.1" fill="#9aa4ae"/><rect x="133.85" y="45.66" width="2.3" height="88.68" rx="1.1" fill="#9aa4ae"/><rect x="137.50" y="45.17" width="2.3" height="89.66" rx="1.1" fill="#9aa4ae"/><rect x="141.15" y="47.55" width="2.3" height="84.91" rx="1.1" fill="#9aa4ae"/><rect x="144.80" y="44.56" width="2.3" height="90.88" rx="1.1" fill="#9aa4ae"/><rect x="148.45" y="45.20" width="2.3" height="89.60" rx="1.1" fill="#9aa4ae"/><rect x="152.10" y="45.57" width="2.3" height="88.87" rx="1.1" fill="#9aa4ae"/><rect x="155.75" y="44.75" width="2.3" height="90.50" rx="1.1" fill="#9aa4ae"/><rect x="159.40" y="44.76" width="2.3" height="90.48" rx="1.1" fill="#9aa4ae"/><rect x="163.05" y="45.91" width="2.3" height="88.18" rx="1.1" fill="#9aa4ae"/><rect x="166.70" y="44.44" width="2.3" height="91.12" rx="1.1" fill="#9aa4ae"/><rect x="170.35" y="44.08" width="2.3" height="91.84" rx="1.1" fill="#9aa4ae"/><rect x="174.00" y="44.50" width="2.3" height="91.01" rx="1.1" fill="#9aa4ae"/><rect x="177.65" y="45.57" width="2.3" height="88.85" rx="1.1" fill="#9aa4ae"/><rect x="181.30" y="44.48" width="2.3" height="91.04" rx="1.1" fill="#9aa4ae"/><rect x="184.95" y="45.70" width="2.3" height="88.59" rx="1.1" fill="#9aa4ae"/><rect x="188.60" y="45.67" width="2.3" height="88.67" rx="1.1" fill="#9aa4ae"/><rect x="192.25" y="47.71" width="2.3" height="84.57" rx="1.1" fill="#9aa4ae"/><rect x="195.90" y="46.34" width="2.3" height="87.33" rx="1.1" fill="#9aa4ae"/><rect x="199.55" y="47.05" width="2.3" height="85.90" rx="1.1" fill="#9aa4ae"/><rect x="203.20" y="48.46" width="2.3" height="83.08" rx="1.1" fill="#9aa4ae"/><rect x="206.85" y="49.26" width="2.3" height="81.47" rx="1.1" fill="#9aa4ae"/><rect x="210.50" y="47.66" width="2.3" height="84.69" rx="1.1" fill="#9aa4ae"/><rect x="214.15" y="48.69" width="2.3" height="82.62" rx="1.1" fill="#9aa4ae"/><rect x="217.80" y="50.35" width="2.3" height="79.30" rx="1.1" fill="#9aa4ae"/><rect x="221.45" y="50.91" width="2.3" height="78.19" rx="1.1" fill="#9aa4ae"/><rect x="225.10" y="49.60" width="2.3" height="80.79" rx="1.1" fill="#9aa4ae"/><rect x="228.75" y="51.54" width="2.3" height="76.91" rx="1.1" fill="#9aa4ae"/><rect x="232.40" y="51.67" width="2.3" height="76.66" rx="1.1" fill="#9aa4ae"/><rect x="236.05" y="52.12" width="2.3" height="75.76" rx="1.1" fill="#9aa4ae"/><rect x="239.70" y="54.71" width="2.3" height="70.58" rx="1.1" fill="#9aa4ae"/><rect x="243.35" y="54.76" width="2.3" height="70.49" rx="1.1" fill="#9aa4ae"/><rect x="247.00" y="54.80" width="2.3" height="70.39" rx="1.1" fill="#9aa4ae"/><rect x="250.65" y="55.17" width="2.3" height="69.66" rx="1.1" fill="#9aa4ae"/><rect x="254.30" y="56.26" width="2.3" height="67.49" rx="1.1" fill="#9aa4ae"/><rect x="257.95" y="57.32" width="2.3" height="65.36" rx="1.1" fill="#9aa4ae"/><rect x="261.60" y="57.38" width="2.3" height="65.24" rx="1.1" fill="#9aa4ae"/><rect x="265.25" y="58.07" width="2.3" height="63.86" rx="1.1" fill="#9aa4ae"/><rect x="268.90" y="60.02" width="2.3" height="59.96" rx="1.1" fill="#9aa4ae"/><rect x="272.55" y="60.84" width="2.3" height="58.32" rx="1.1" fill="#9aa4ae"/><rect x="276.20" y="60.88" width="2.3" height="58.25" rx="1.1" fill="#9aa4ae"/><rect x="279.85" y="61.39" width="2.3" height="57.22" rx="1.1" fill="#9aa4ae"/><rect x="283.50" y="62.34" width="2.3" height="55.32" rx="1.1" fill="#9aa4ae"/><rect x="287.15" y="63.54" width="2.3" height="52.91" rx="1.1" fill="#9aa4ae"/><rect x="290.80" y="63.22" width="2.3" height="53.57" rx="1.1" fill="#9aa4ae"/><rect x="294.45" y="65.68" width="2.3" height="48.64" rx="1.1" fill="#9aa4ae"/><rect x="298.10" y="65.69" width="2.3" height="48.62" rx="1.1" fill="#9aa4ae"/><rect x="301.75" y="66.37" width="2.3" height="47.25" rx="1.1" fill="#9aa4ae"/><rect x="305.40" y="66.35" width="2.3" height="47.29" rx="1.1" fill="#9aa4ae"/><rect x="309.05" y="67.96" width="2.3" height="44.08" rx="1.1" fill="#9aa4ae"/><rect x="312.70" y="68.17" width="2.3" height="43.66" rx="1.1" fill="#9aa4ae"/><rect x="316.35" y="68.74" width="2.3" height="42.52" rx="1.1" fill="#9aa4ae"/><rect x="320.00" y="69.22" width="2.3" height="41.56" rx="1.1" fill="#9aa4ae"/><rect x="323.65" y="70.58" width="2.3" height="38.83" rx="1.1" fill="#9aa4ae"/><rect x="327.30" y="71.20" width="2.3" height="37.60" rx="1.1" fill="#9aa4ae"/><rect x="330.95" y="71.72" width="2.3" height="36.55" rx="1.1" fill="#9aa4ae"/><rect x="334.60" y="72.94" width="2.3" height="34.12" rx="1.1" fill="#9aa4ae"/><rect x="338.25" y="72.86" width="2.3" height="34.28" rx="1.1" fill="#9aa4ae"/><rect x="341.90" y="73.37" width="2.3" height="33.25" rx="1.1" fill="#9aa4ae"/><rect x="345.55" y="74.66" width="2.3" height="30.69" rx="1.1" fill="#9aa4ae"/><rect x="349.20" y="74.72" width="2.3" height="30.55" rx="1.1" fill="#9aa4ae"/><rect x="352.85" y="75.81" width="2.3" height="28.38" rx="1.1" fill="#9aa4ae"/><rect x="356.50" y="76.37" width="2.3" height="27.27" rx="1.1" fill="#9aa4ae"/><rect x="360.15" y="76.83" width="2.3" height="26.34" rx="1.1" fill="#9aa4ae"/><rect x="363.80" y="77.41" width="2.3" height="25.17" rx="1.1" fill="#9aa4ae"/><rect x="367.45" y="78.07" width="2.3" height="23.87" rx="1.1" fill="#9aa4ae"/><rect x="371.10" y="78.55" width="2.3" height="22.89" rx="1.1" fill="#9aa4ae"/><rect x="374.75" y="79.10" width="2.3" height="21.81" rx="1.1" fill="#9aa4ae"/><rect x="378.40" y="79.50" width="2.3" height="21.00" rx="1.1" fill="#9aa4ae"/><rect x="382.05" y="80.21" width="2.3" height="19.57" rx="1.1" fill="#9aa4ae"/><rect x="385.70" y="80.73" width="2.3" height="18.54" rx="1.1" fill="#9aa4ae"/><rect x="389.35" y="81.00" width="2.3" height="17.99" rx="1.1" fill="#9aa4ae"/><rect x="393.00" y="81.87" width="2.3" height="16.27" rx="1.1" fill="#9aa4ae"/><rect x="396.65" y="82.07" width="2.3" height="15.86" rx="1.1" fill="#9aa4ae"/><rect x="400.30" y="82.48" width="2.3" height="15.04" rx="1.1" fill="#9aa4ae"/><rect x="403.95" y="82.86" width="2.3" height="14.28" rx="1.1" fill="#9aa4ae"/><rect x="407.60" y="83.25" width="2.3" height="13.50" rx="1.1" fill="#9aa4ae"/><rect x="411.25" y="83.77" width="2.3" height="12.46" rx="1.1" fill="#9aa4ae"/><rect x="414.90" y="84.33" width="2.3" height="11.34" rx="1.1" fill="#9aa4ae"/><rect x="418.55" y="84.36" width="2.3" height="11.28" rx="1.1" fill="#9aa4ae"/><rect x="422.20" y="84.64" width="2.3" height="10.72" rx="1.1" fill="#9aa4ae"/><rect x="425.85" y="85.28" width="2.3" height="9.44" rx="1.1" fill="#9aa4ae"/><rect x="429.50" y="85.55" width="2.3" height="8.89" rx="1.1" fill="#9aa4ae"/><rect x="433.15" y="85.85" width="2.3" height="8.31" rx="1.1" fill="#9aa4ae"/><rect x="436.80" y="85.89" width="2.3" height="8.22" rx="1.1" fill="#9aa4ae"/><rect x="440.45" y="86.30" width="2.3" height="7.41" rx="1.1" fill="#9aa4ae"/><rect x="444.10" y="86.73" width="2.3" height="6.53" rx="1.1" fill="#9aa4ae"/><rect x="447.75" y="86.70" width="2.3" height="6.60" rx="1.1" fill="#9aa4ae"/><rect x="451.40" y="87.00" width="2.3" height="6.01" rx="1.1" fill="#9aa4ae"/><rect x="455.05" y="87.37" width="2.3" height="5.26" rx="1.1" fill="#9aa4ae"/><rect x="458.70" y="87.47" width="2.3" height="5.07" rx="1.1" fill="#9aa4ae"/><rect x="462.35" y="87.72" width="2.3" height="4.57" rx="1.1" fill="#9aa4ae"/><rect x="466.00" y="88.02" width="2.3" height="3.95" rx="1.1" fill="#9aa4ae"/><rect x="469.65" y="88.09" width="2.3" height="3.81" rx="1.1" fill="#9aa4ae"/><rect x="473.30" y="88.30" width="2.3" height="3.40" rx="1.1" fill="#9aa4ae"/><rect x="476.95" y="88.47" width="2.3" height="3.06" rx="1.1" fill="#9aa4ae"/><rect x="480.60" y="88.53" width="2.3" height="2.94" rx="1.1" fill="#9aa4ae"/><rect x="484.25" y="88.71" width="2.3" height="2.58" rx="1.1" fill="#9aa4ae"/><rect x="487.90" y="88.84" width="2.3" height="2.32" rx="1.1" fill="#9aa4ae"/><rect x="491.55" y="88.94" width="2.3" height="2.13" rx="1.1" fill="#9aa4ae"/><rect x="495.20" y="89.00" width="2.3" height="2.00" rx="1.1" fill="#9aa4ae"/><rect x="498.85" y="89.00" width="2.3" height="2.00" rx="1.1" fill="#9aa4ae"/><rect x="502.50" y="89.00" width="2.3" height="2.00" rx="1.1" fill="#9aa4ae"/><rect x="506.15" y="89.00" width="2.3" height="2.00" rx="1.1" fill="#9aa4ae"/><rect x="509.80" y="89.00" width="2.3" height="2.00" rx="1.1" fill="#9aa4ae"/><rect x="513.45" y="89.00" width="2.3" height="2.00" rx="1.1" fill="#9aa4ae"/><rect x="517.10" y="89.00" width="2.3" height="2.00" rx="1.1" fill="#9aa4ae"/><rect x="520.75" y="89.00" width="2.3" height="2.00" rx="1.1" fill="#9aa4ae"/><rect x="524.40" y="89.00" width="2.3" height="2.00" rx="1.1" fill="#9aa4ae"/><rect x="528.05" y="89.00" width="2.3" height="2.00" rx="1.1" fill="#9aa4ae"/><rect x="531.70" y="89.00" width="2.3" height="2.00" rx="1.1" fill="#9aa4ae"/><rect x="535.35" y="89.00" width="2.3" height="2.00" rx="1.1" fill="#9aa4ae"/><rect x="539.00" y="89.00" width="2.3" height="2.00" rx="1.1" fill="#9aa4ae"/><rect x="542.65" y="89.00" width="2.3" height="2.00" rx="1.1" fill="#9aa4ae"/><rect x="546.30" y="89.00" width="2.3" height="2.00" rx="1.1" fill="#9aa4ae"/><rect x="549.95" y="89.00" width="2.3" height="2.00" rx="1.1" fill="#9aa4ae"/><rect x="553.60" y="89.00" width="2.3" height="2.00" rx="1.1" fill="#9aa4ae"/><rect x="557.25" y="89.00" width="2.3" height="2.00" rx="1.1" fill="#9aa4ae"/><rect x="560.90" y="89.00" width="2.3" height="2.00" rx="1.1" fill="#9aa4ae"/><rect x="564.55" y="89.00" width="2.3" height="2.00" rx="1.1" fill="#9aa4ae"/><rect x="568.20" y="89.00" width="2.3" height="2.00" rx="1.1" fill="#9aa4ae"/><rect x="571.85" y="89.00" width="2.3" height="2.00" rx="1.1" fill="#9aa4ae"/><rect x="575.50" y="89.00" width="2.3" height="2.00" rx="1.1" fill="#9aa4ae"/><rect x="579.15" y="89.00" width="2.3" height="2.00" rx="1.1" fill="#9aa4ae"/><rect x="582.80" y="89.00" width="2.3" height="2.00" rx="1.1" fill="#9aa4ae"/><rect x="586.45" y="89.00" width="2.3" height="2.00" rx="1.1" fill="#9aa4ae"/><rect x="590.10" y="89.00" width="2.3" height="2.00" rx="1.1" fill="#9aa4ae"/><rect x="593.75" y="89.00" width="2.3" height="2.00" rx="1.1" fill="#9aa4ae"/><rect x="597.40" y="89.00" width="2.3" height="2.00" rx="1.1" fill="#9aa4ae"/><rect x="601.05" y="89.00" width="2.3" height="2.00" rx="1.1" fill="#9aa4ae"/><rect x="604.70" y="89.00" width="2.3" height="2.00" rx="1.1" fill="#9aa4ae"/><rect x="608.35" y="89.00" width="2.3" height="2.00" rx="1.1" fill="#9aa4ae"/></g>
</svg>
